<?xml version="1.0" encoding="UTF-8"?>
<svg version="1.1" xmlns="http://www.w3.org/2000/svg" width="512" height="512">
<path d="M0 0 C1.75582306 -0.00461336 3.51164226 -0.01096919 5.26745343 -0.01890898 C10.07500765 -0.03556634 14.88224317 -0.02737219 19.68979836 -0.0149641 C24.88150792 -0.00590096 30.07316331 -0.0198898 35.26486206 -0.03088379 C45.429695 -0.04866157 55.59440972 -0.04483186 65.75924727 -0.03323323 C74.02358244 -0.02419429 82.28788451 -0.02297691 90.55222321 -0.02732849 C91.72913007 -0.02794142 92.90603694 -0.02855436 94.11860766 -0.02918586 C96.50963409 -0.03046479 98.90066051 -0.03176164 101.29168692 -0.03307623 C123.70901325 -0.04448037 146.12627414 -0.03137193 168.54358974 -0.00987476 C187.7642204 0.00798674 206.98475439 0.00489958 226.2053833 -0.0135498 C248.53709862 -0.03497548 270.86875654 -0.04337195 293.2004807 -0.03110075 C295.58386182 -0.02982659 297.96724295 -0.02856911 300.35062408 -0.02732849 C302.10951077 -0.02640284 302.10951077 -0.02640284 303.90393053 -0.02545848 C312.15297569 -0.02200999 320.40198436 -0.02782335 328.65102386 -0.0372467 C338.71189521 -0.04848732 348.77264179 -0.04538367 358.83349892 -0.02412373 C363.96334761 -0.01363967 369.09298858 -0.00944617 374.22283554 -0.02272034 C378.92585542 -0.03470552 383.62847653 -0.02798132 388.33146062 -0.00681013 C390.02587745 -0.00236978 391.72032849 -0.00455201 393.41472301 -0.01431328 C414.21475959 -0.12487677 431.35714684 5.96468593 446.71905518 20.50793457 C461.04756038 35.19593632 466.25936815 53.55373578 466.13702393 73.57995605 C465.65476319 92.93217511 457.60325066 108.43772963 444.25811768 122.09387207 C441.71905518 124.50793457 441.71905518 124.50793457 439.71905518 125.50793457 C440.4435083 125.88305176 441.16796143 126.25816895 441.91436768 126.64465332 C452.47397398 132.23420493 459.85818309 138.12825667 464.59405518 149.44543457 C467.61420695 159.81583525 467.05304848 172.18146282 462.36358643 181.87121582 C459.64830501 186.22469553 456.37060544 189.91981073 452.71905518 193.50793457 C454.02361584 196.36554365 455.45160481 198.47117408 457.59405518 200.75793457 C465.86616295 210.16265367 466.39951244 220.31716596 465.89825439 232.36730957 C465.08658216 242.06314353 458.72892532 249.92870567 451.78155518 256.25793457 C448.30464165 259.18550916 444.74522484 261.4109712 440.71905518 263.50793457 C441.33651611 264.0673877 441.95397705 264.62684082 442.59014893 265.20324707 C454.74645638 276.71195824 464.80482412 291.86777083 465.88018799 309.08825684 C466.2070256 330.38400766 464.12814427 349.14572059 448.90655518 365.25793457 C447.53563721 366.6423877 447.53563721 366.6423877 446.13702393 368.05480957 C444.10466487 370.11671827 442.38019494 372.14591524 440.71905518 374.50793457 C441.43190674 374.85984863 442.1447583 375.2117627 442.87921143 375.57434082 C455.07910102 381.86311298 461.32755311 389.33342837 465.71905518 402.50793457 C466.64357769 417.42154371 465.30136138 427.84487251 455.52374268 439.70715332 C453.71905518 441.50793457 453.71905518 441.50793457 451.71905518 441.50793457 C452.39452393 442.33035645 453.06999268 443.15277832 453.76593018 444.00012207 C463.32736353 455.84922747 466.99981529 465.0441519 465.94219971 480.42102051 C464.89745523 490.19178172 459.74302317 498.23257108 452.35968018 504.51574707 C441.57289094 512.52209063 431.4989295 512.94694151 418.60978699 512.90234375 C416.86037844 512.90723626 415.11097313 512.91342774 413.36157328 512.92080164 C408.56707958 512.93717919 403.77275056 512.93488763 398.9782387 512.92942667 C393.80215293 512.92675371 388.62611079 512.94129349 383.45004272 512.95352173 C373.31316927 512.9745684 363.17635302 512.97911695 353.03946029 512.97733384 C344.79657428 512.97602554 336.5537061 512.97983385 328.31082344 512.98725891 C325.93520834 512.98935815 323.55959324 512.99145575 321.18397814 512.99355173 C320.00149304 512.99459526 318.81900794 512.99563879 317.60068996 512.99671394 C295.23911994 513.01561409 272.87758272 513.01456713 250.51600803 513.00774461 C230.07694773 513.00217245 209.63801291 513.0229811 189.19898193 513.05610508 C168.1984585 513.089874 147.19799511 513.10500621 126.19744402 513.10038805 C114.41288828 513.0981462 102.62844844 513.1033446 90.84391594 513.12828064 C80.80831904 513.14933538 70.77290154 513.15284459 60.73729717 513.13398105 C55.62133414 513.12484802 50.50570523 513.1236053 45.3897686 513.1443367 C40.69702544 513.16314198 36.00488779 513.15843692 31.312167 513.13579088 C29.62373627 513.13162904 27.93525823 513.13572283 26.24687766 513.14938682 C5.50876206 513.30565244 -11.92974382 506.85288307 -27.28094482 492.50793457 C-41.61744671 477.83862103 -46.82116691 459.44725561 -46.69891357 439.43591309 C-46.21665284 420.08369403 -38.1651403 404.57813951 -24.82000732 390.92199707 C-22.28094482 388.50793457 -22.28094482 388.50793457 -20.28094482 387.50793457 C-21.00539795 387.13281738 -21.72985107 386.7577002 -22.47625732 386.37121582 C-33.03586363 380.78166421 -40.42007274 374.88761247 -45.15594482 363.57043457 C-48.1760966 353.20003389 -47.61493813 340.83440632 -42.92547607 331.14465332 C-40.21019466 326.79117361 -36.93249509 323.09605841 -33.28094482 319.50793457 C-34.58550549 316.6503255 -36.01349446 314.54469506 -38.15594482 312.25793457 C-46.42805259 302.85321547 -46.96140209 292.69870318 -46.46014404 280.64855957 C-45.64847181 270.95272562 -39.29081497 263.08716347 -32.34344482 256.75793457 C-28.8665313 253.83035998 -25.30711449 251.60489794 -21.28094482 249.50793457 C-21.89840576 248.94848145 -22.5158667 248.38902832 -23.15203857 247.81262207 C-35.30834603 236.3039109 -45.36671376 221.14809831 -46.44207764 203.9276123 C-46.76891525 182.63186148 -44.69003391 163.87014855 -29.46844482 147.75793457 C-28.55449951 146.83496582 -27.6405542 145.91199707 -26.69891357 144.96105957 C-24.66655452 142.89915087 -22.94208458 140.8699539 -21.28094482 138.50793457 C-21.99379639 138.15602051 -22.70664795 137.80410645 -23.44110107 137.44152832 C-35.64099067 131.15275616 -41.88944276 123.68244077 -46.28094482 110.50793457 C-47.16151663 96.30330081 -46.11975949 85.6469409 -36.96453857 74.18762207 C-35.28094482 72.50793457 -35.28094482 72.50793457 -32.28094482 71.50793457 C-33.29414795 70.27430176 -33.29414795 70.27430176 -34.32781982 69.01574707 C-43.88925318 57.16664167 -47.56170494 47.97171724 -46.50408936 32.59484863 C-45.39084162 22.18342455 -39.47968176 13.66916138 -31.46844482 7.19543457 C-21.31959134 0.39976809 -11.84895548 -0.0678699 0 0 Z M-25.28094482 23.50793457 C-30.86285973 30.20300592 -30.97809979 37.10223753 -30.28094482 45.50793457 C-28.59854181 51.79160848 -24.60810067 55.97807296 -19.28094482 59.50793457 C-11.28567348 63.63958927 -2.27542692 62.92304278 6.4602356 62.87974548 C8.16940999 62.8823222 9.87858281 62.88622513 11.58775151 62.89133507 C16.27054154 62.90158733 20.95314252 62.89332029 25.63592339 62.88203824 C30.69109358 62.87317331 35.74623734 62.8816912 40.80140686 62.88824463 C49.55590396 62.89739445 58.31034863 62.89607774 67.06484604 62.88805962 C79.72559788 62.87682809 92.38627499 62.88586836 105.04702033 62.90062142 C125.59329629 62.92438436 146.13956302 62.9377579 166.68585205 62.94177246 C168.52972323 62.94213976 168.52972323 62.94213976 170.41084434 62.94251449 C184.13607902 62.94506231 197.861313 62.94562612 211.58654785 62.94458008 C216.56919352 62.94424703 221.55183919 62.94396164 226.53448486 62.94372559 C227.76405332 62.9436628 228.99362177 62.94360001 230.26044987 62.94353532 C250.73772413 62.94293124 271.21495574 62.95777898 291.69221222 62.98455864 C304.32748819 63.00039235 316.96262678 63.00259194 329.59790428 62.98742462 C338.24606502 62.97798728 346.89414266 62.98267175 355.54229359 62.99863844 C360.53711215 63.00736648 365.53171022 63.00939251 370.52651787 62.99411201 C375.09330038 62.98025168 379.65968229 62.98454198 384.22644259 63.00363303 C385.88368519 63.00726423 387.54095899 63.00403757 389.19817196 62.99348336 C391.4409687 62.98015526 393.68233996 62.99114077 395.92507744 63.00850582 C397.17365559 63.00839848 398.42223375 63.00829115 399.70864761 63.00818056 C402.71905518 63.50793457 402.71905518 63.50793457 404.63904011 65.39168793 C405.97021701 68.00007622 405.8702854 69.39123864 405.40655518 72.25793457 C405.22673096 73.4567627 405.22673096 73.4567627 405.04327393 74.67980957 C404.93628174 75.28309082 404.82928955 75.88637207 404.71905518 76.50793457 C400.64660728 77.48171155 396.84808312 77.63182796 392.66615772 77.6298399 C391.96439776 77.63088454 391.2626378 77.63192918 390.53961238 77.63300547 C388.18239508 77.63531662 385.82524576 77.63050559 383.46803284 77.6257782 C381.76317701 77.62604843 380.0583212 77.62677293 378.35346574 77.6279133 C374.64370005 77.62943653 370.93395354 77.62779598 367.22418976 77.62376595 C361.18824984 77.61724261 355.15232142 77.61757468 349.11637878 77.61883545 C341.48909128 77.61995598 333.8618074 77.61931166 326.23452028 77.61663464 C311.24539914 77.61151016 296.25631164 77.61985766 281.26719666 77.633255 C278.90781365 77.6353017 276.54843065 77.63734403 274.18904763 77.63938206 C269.41211251 77.64353815 264.63517744 77.64775332 259.85824239 77.65198958 C247.57592622 77.66279304 235.29360954 77.67259788 223.0112915 77.68103027 C221.16229565 77.68230715 221.16229565 77.68230715 219.27594634 77.68360982 C199.30143967 77.69682958 179.32697292 77.69181214 159.35246668 77.68095871 C138.8470143 77.67032985 118.34166142 77.68250808 97.83623189 77.71504098 C85.18737796 77.73432343 72.53878977 77.73531977 59.88993987 77.7128847 C51.22062282 77.69914233 42.55149964 77.70727141 33.8822094 77.73260929 C28.88038353 77.74655867 23.87904718 77.75075914 18.87723923 77.72878456 C14.29556383 77.70885994 9.71479234 77.71666603 5.13317695 77.74626068 C3.4783853 77.75209396 1.82352 77.74785477 0.16879062 77.73235943 C-9.14429945 77.65130129 -16.94722602 77.98845814 -24.28094482 84.50793457 C-29.61555502 90.74048964 -31.16318857 96.26816951 -30.73016357 104.45715332 C-29.70661963 111.40835178 -26.69868017 115.65201963 -21.45281982 120.18371582 C-12.94534788 125.37082551 -4.36686454 124.93145155 5.27268982 124.8888855 C6.97387486 124.89234404 8.67505766 124.89710992 10.37623578 124.90306723 C15.04197418 124.91558054 19.70752827 124.90940524 24.37326729 124.90010858 C29.40888151 124.89331955 34.44446409 124.90379878 39.48007202 124.91204834 C49.34269739 124.92539085 59.20525427 124.92250519 69.06788232 124.91381042 C77.08627431 124.90703441 85.10464712 124.9061168 93.12304115 124.90938187 C94.26442803 124.90984157 95.4058149 124.91030126 96.58178926 124.91077489 C98.90058349 124.91173408 101.21937771 124.91270672 103.53817192 124.91369267 C125.28541377 124.92224858 147.03261769 124.91241027 168.77985332 124.89629157 C187.42830747 124.88289721 206.07670557 124.88520882 224.72515869 124.89904785 C246.38700083 124.91511562 268.04880968 124.92141511 289.71065694 124.91221106 C292.02243475 124.91125543 294.33421256 124.91031232 296.64599037 124.90938187 C297.78337875 124.90891904 298.92076713 124.90845621 300.09262183 124.90797936 C308.09614616 124.9053924 316.09964934 124.90975434 324.10317039 124.91682053 C333.86472933 124.92524941 343.62621593 124.92292657 353.38776662 124.90697829 C358.36555318 124.8991129 363.34321929 124.89597428 368.32100487 124.90592575 C372.88397607 124.91490964 377.44671594 124.90987926 382.00966636 124.89399309 C383.65432905 124.89066076 385.29901156 124.89230422 386.94366135 124.89962046 C405.82129834 124.97711023 421.47847485 121.36439044 435.50030518 107.95715332 C447.55806597 94.64691385 450.53393014 80.28100174 449.89385986 62.97375488 C449.17364277 52.81426797 444.59267726 44.59751408 438.71905518 36.50793457 C438.29624268 35.9123877 437.87343018 35.31684082 437.43780518 34.70324707 C430.02434832 25.03569861 416.68727282 17.95543453 404.78265339 16.22674674 C396.60226402 15.30216167 388.42140717 15.36548342 380.20170593 15.3742218 C378.52894495 15.37235143 376.8561844 15.37004983 375.18342453 15.36735648 C370.60575114 15.36126038 366.02809607 15.36136947 361.45041955 15.36255085 C356.50627051 15.36275541 351.56212727 15.35723102 346.61798096 15.35249329 C336.94014274 15.34419905 327.26231061 15.34143903 317.58446913 15.34088091 C309.71865077 15.34040533 301.85283441 15.33834849 293.98701668 15.33518028 C271.67998911 15.32637838 249.37296635 15.32176038 227.06593703 15.32251076 C225.86422237 15.32255071 224.6625077 15.32259067 223.42437744 15.32263184 C222.22119427 15.32267272 221.01801109 15.3227136 219.77836782 15.32275572 C200.26586527 15.32316244 180.75338199 15.31358517 161.24088501 15.29949347 C141.19975367 15.28513425 121.15863174 15.27822298 101.11749512 15.27908725 C89.86809573 15.27941929 78.61871657 15.27666872 67.36932182 15.26590919 C57.79509562 15.25681036 48.22089881 15.25462401 38.64667016 15.26141862 C33.76254744 15.26468644 28.87848116 15.26473091 23.99436378 15.25606537 C19.52178507 15.24821154 15.04930766 15.24962038 10.57673145 15.2583495 C8.96046055 15.2598869 7.34418214 15.25805929 5.72792011 15.25248943 C-11.18533808 15.08691727 -11.18533808 15.08691727 -25.28094482 23.50793457 Z M-20.28094482 161.50793457 C-29.72145283 175.65908302 -32.67414276 191.3597628 -29.63250732 208.07043457 C-24.67513798 224.00180956 -14.89115279 235.68670911 -0.28094482 243.50793457 C7.76627162 247.03929285 15.11001115 248.62959456 23.91341114 248.64215565 C24.97076381 248.64568399 24.97076381 248.64568399 26.04947713 248.64928362 C28.41134205 248.65594023 30.77315154 248.65551641 33.13502502 248.65510559 C34.84558212 248.65840627 36.55613844 248.66213227 38.26669377 248.66624707 C42.96741646 248.67625147 47.66812639 248.67998133 52.36885822 248.68263638 C57.43850742 248.68654389 62.50814655 248.69612171 67.57778931 248.70484924 C79.8186673 248.72459782 92.05954611 248.73467642 104.30043605 248.74357703 C110.0647595 248.74796131 115.82908204 248.75332764 121.59340477 248.7585659 C140.75339346 248.77557422 159.91338158 248.79006962 179.07337666 248.79731464 C184.04372979 248.79922452 189.01408292 248.80114486 193.98443604 248.80310059 C195.21978736 248.80358433 196.45513869 248.80406807 197.72792491 248.80456647 C217.75155763 248.8128715 237.77513072 248.83821818 257.79873738 248.87068126 C278.35502758 248.9037365 298.91128743 248.92176189 319.46760434 248.92495888 C331.00996329 248.92712506 342.55223519 248.93588993 354.09456825 248.96142006 C363.92143628 248.98310578 373.74819608 248.99118782 383.57508532 248.98145328 C388.58886133 248.97690285 393.60241394 248.97883818 398.61615944 248.99821472 C403.20741795 249.01580539 407.79828939 249.01488198 412.38955178 248.99931743 C414.04901484 248.99693518 415.70850441 249.00129688 417.36792687 249.01314608 C426.96319905 249.07740913 435.36142995 249.00690867 443.05889893 242.54309082 C443.58612549 241.89211426 444.11335205 241.2411377 444.65655518 240.57043457 C445.20182861 239.92203613 445.74710205 239.2736377 446.30889893 238.60559082 C450.36320385 232.57467186 450.43632398 226.57027359 449.71905518 219.50793457 C447.94563084 212.86320543 443.27239047 208.33425498 437.71905518 204.50793457 C433.9658135 202.72772766 431.00714567 202.25725679 426.86755276 202.25460148 C425.6896434 202.24898608 424.51173404 202.24337069 423.29813045 202.23758513 C421.36303154 202.24355677 421.36303154 202.24355677 419.38883972 202.24964905 C418.00144026 202.24679411 416.61404239 202.24305594 415.22664744 202.23851055 C411.41470951 202.22852584 407.60286356 202.23090397 403.79091871 202.23523748 C399.67976951 202.23771266 395.56864455 202.22864687 391.45750427 202.22085571 C384.33394391 202.2088085 377.21040593 202.20370268 370.08683586 202.20297432 C359.78297096 202.20164937 349.47916045 202.18654418 339.17531473 202.16747915 C322.45251553 202.13663407 305.72971496 202.11246919 289.00689697 202.09460449 C288.00592716 202.09353181 287.00495734 202.09245913 285.97365511 202.09135395 C274.8021401 202.07952992 263.63062454 202.06932485 252.45910645 202.06091309 C248.40635171 202.0578391 244.35359699 202.05475033 240.30084229 202.05163574 C239.300787 202.0508704 238.30073172 202.05010506 237.27037173 202.04931653 C220.60926843 202.03624571 203.94820454 202.01162231 187.28713042 201.97789234 C177.00602743 201.95757767 166.72500866 201.94731634 156.44388545 201.94988155 C149.40337527 201.95091479 142.36293177 201.94130927 135.32244485 201.92324252 C131.25715819 201.91317497 127.192019 201.90809351 123.12672424 201.9160099 C119.40787301 201.92316579 115.68930962 201.91665842 111.97049517 201.8991245 C109.9824126 201.89337754 107.9943044 201.90247117 106.00623649 201.91202742 C104.83093488 201.90380428 103.65563327 201.89558113 102.44471645 201.8871088 C101.42825745 201.88629435 100.41179845 201.88547989 99.36453766 201.88464075 C96.31128066 201.4498691 94.9329292 200.62156922 92.71905518 198.50793457 C92.22296143 196.57043457 92.22296143 196.57043457 92.28155518 194.50793457 C92.28284424 193.82730957 92.2841333 193.14668457 92.28546143 192.44543457 C92.85790169 189.88750329 93.64501578 189.10485395 95.71905518 187.50793457 C98.22817379 187.13352972 98.22817379 187.13352972 101.29208469 187.13434696 C103.04220021 187.12386234 103.04220021 187.12386234 104.82767159 187.11316592 C106.11557954 187.12074197 107.4034875 187.12831802 108.73042297 187.13612366 C110.10769635 187.13355031 111.48496778 187.1296505 112.86223406 187.12453407 C116.65575794 187.11422917 120.44905031 187.12258422 124.24256313 187.1338309 C128.33068588 187.14266272 132.41877512 187.13418758 136.50689697 187.12762451 C143.59502837 187.1184552 150.68309507 187.11980673 157.77122688 187.12780952 C168.03043291 187.13902802 178.28954651 187.1300112 188.54874449 187.11524772 C205.20699425 187.0914564 221.86523262 187.07810763 238.52349854 187.07409668 C239.52103487 187.07385181 240.51857121 187.07360694 241.54633593 187.07335465 C252.66889133 187.07081022 263.79144585 187.07024108 274.91400146 187.07128906 C278.94333903 187.07162206 282.97267659 187.07190747 287.00201416 187.07214355 C287.99621548 187.07220634 288.99041679 187.07226913 290.01474542 187.07233382 C306.6012355 187.07293895 323.18767306 187.05804304 339.77414125 187.0313105 C350.00445799 187.0155102 360.23460515 187.01324244 370.46492367 187.02844452 C377.47980749 187.03791753 384.49458921 187.03314178 391.50946105 187.0172307 C395.55527318 187.00854368 399.60081395 187.00637814 403.64661217 187.02175713 C407.35481858 187.03573996 411.06253492 187.03117251 414.77071505 187.01223611 C416.73856444 187.00694487 418.70643688 187.02127893 420.67423493 187.03644663 C429.05635487 186.96855846 436.46489871 185.93716647 443.15655518 180.54309082 C443.92999268 179.56662598 443.92999268 179.56662598 444.71905518 178.57043457 C445.25530518 177.92203613 445.79155518 177.2736377 446.34405518 176.60559082 C450.47034035 170.31066146 450.67216503 163.8349666 449.71905518 156.50793457 C447.31672569 149.96335313 443.61603814 145.70922099 437.55108643 142.34777832 C433.50484514 140.49289159 430.27439055 140.37997438 425.85816383 140.37371349 C425.15285685 140.37136126 424.44754988 140.36900903 423.72086996 140.36658552 C421.33952262 140.35988839 418.95822976 140.36035396 416.57687378 140.36076355 C414.85938222 140.35746534 413.14189143 140.35373987 411.42440164 140.34962207 C406.69041865 140.33958857 401.95644834 140.33588309 397.22245622 140.33323276 C392.12200267 140.32933357 387.02155919 140.3197548 381.92111206 140.3110199 C369.59442057 140.29124203 357.26772824 140.28118648 344.94102484 140.27229211 C339.13686447 140.26791037 333.33270502 140.26254317 327.52854538 140.25730324 C308.23400627 140.24028776 288.93946772 140.22579437 269.64492226 140.2185545 C264.63594182 140.21664457 259.62696138 140.21472425 254.61798096 140.21276855 C253.37301052 140.21228481 252.12804009 140.21180107 250.84534328 140.21130268 C230.6851919 140.2030054 210.52509991 140.177675 190.36497445 140.14518788 C169.66863839 140.11210862 148.9723325 140.09410485 128.27596986 140.09091026 C116.6551911 140.0887457 105.03449888 140.0800052 93.41374588 140.05444908 C83.51482203 140.03273008 73.61600574 140.02469752 63.71706076 140.03441586 C58.66838099 140.03895738 53.61992308 140.03708292 48.5712738 140.01765442 C43.94329596 139.99999908 39.31570144 140.00103975 34.68771939 140.01655171 C33.01934725 140.01892421 31.35094841 140.01462291 29.68261702 140.00272306 C9.44078313 139.86736312 -7.03110728 145.61658236 -20.28094482 161.50793457 Z M-23.62078857 270.47277832 C-24.14801514 271.12375488 -24.6752417 271.77473145 -25.21844482 272.44543457 C-25.76371826 273.09383301 -26.3089917 273.74223145 -26.87078857 274.41027832 C-31.07486178 280.66398278 -31.13163782 287.18843028 -30.28094482 294.50793457 C-27.9060463 301.06010997 -22.32475592 306.53447581 -16.10756403 309.56858683 C-12.67595204 310.70898698 -9.82906966 310.76061459 -6.2112875 310.76406097 C-5.15595119 310.76915628 -5.15595119 310.76915628 -4.07929495 310.77435452 C-1.71596667 310.78333583 0.64711559 310.77808718 3.01045227 310.77294922 C4.71958613 310.77651928 6.42871834 310.78096959 8.13784784 310.7862258 C12.83909952 310.79816511 17.54028162 310.7977056 22.24154484 310.79529071 C27.30975895 310.79487181 32.3779489 310.80596369 37.44615173 310.81575012 C46.2296212 310.83121572 55.01307458 310.83961697 63.79655647 310.84346008 C76.50040667 310.84920276 89.20421355 310.86778136 101.90804463 310.88990062 C122.52415891 310.92563206 143.14027564 310.95394115 163.75640869 310.97619629 C164.99064646 310.97753128 166.22488422 310.97886627 167.49652313 310.98024172 C177.51209662 310.9910194 187.52767048 311.00143876 197.54324436 311.01184177 C206.29952067 311.02095167 215.05579682 311.03020411 223.81207275 311.03967285 C225.04511369 311.04100359 226.27815463 311.04233434 227.54856045 311.0437054 C248.08785596 311.0661139 268.62713294 311.09629831 289.16640943 311.1320653 C301.84283315 311.1537601 314.51922802 311.1683592 327.19566929 311.17390406 C335.87609683 311.17814261 344.55649689 311.18935748 353.23690922 311.206128 C358.24998814 311.21555761 363.26301565 311.22163809 368.27610397 311.21906471 C372.86088831 311.21676156 377.44556443 311.22352729 382.03032678 311.23764354 C383.69308716 311.24111908 385.35585873 311.24118058 387.01861883 311.23757094 C389.2709568 311.23315705 391.5229308 311.24091121 393.77523899 311.25180817 C395.02864348 311.25300234 396.28204797 311.25419652 397.57343441 311.25542688 C400.56887118 311.49587889 402.25721991 311.83146137 404.71905518 313.50793457 C406.13947338 316.34877098 406.0335779 318.36270735 405.71905518 321.50793457 C403.51078442 324.51872277 402.30906264 325.41405109 398.58559978 326.00653791 C396.71411524 326.0055638 396.71411524 326.0055638 394.80482292 326.00457001 C394.10590518 326.00967537 393.40698743 326.01478074 392.68689036 326.02004081 C390.3329796 326.0323431 387.98012726 326.01603374 385.62625122 326 C383.92637947 326.00300942 382.22651008 326.00778465 380.52664769 326.01417875 C375.84601963 326.02672237 371.16573292 326.01435885 366.4851284 325.99810386 C361.44063983 325.98496092 356.39619276 325.99488995 351.35169983 326.00221252 C342.6063883 326.0119055 333.86117631 326.00741165 325.11587143 325.99378967 C312.46066943 325.97444773 299.80557965 325.9808561 287.15037479 325.99436349 C266.60490337 326.01596203 246.05945837 326.02265471 225.51397705 326.01721191 C224.28373826 326.01689128 223.05349947 326.01657065 221.78598072 326.0162403 C211.80688143 326.01352827 201.82778241 326.01009803 191.84868336 326.00663471 C183.13457561 326.00364029 174.42046783 326.00093172 165.70635986 325.99865723 C164.47943562 325.99833172 163.25251137 325.9980062 161.9884076 325.99767083 C141.5282121 325.99272803 121.0680533 326.00340957 100.60786927 326.02522898 C87.98598932 326.03792946 75.36426057 326.03647219 62.7423888 326.01677811 C54.09086442 326.00416908 45.43941667 326.0056341 36.78789239 326.01815164 C31.79628739 326.0248637 26.8049061 326.02497422 21.81332207 326.00757027 C17.24104737 325.9917306 12.66916321 325.99434136 8.09689642 326.01142031 C6.44543332 326.01433219 4.79394125 326.01051039 3.14251457 325.99916214 C-6.62903529 325.93624859 -15.74925223 326.04889391 -23.71844482 332.47277832 C-24.23406982 333.12375488 -24.74969482 333.77473145 -25.28094482 334.44543457 C-25.81719482 335.09383301 -26.35344482 335.74223145 -26.90594482 336.41027832 C-31.03222999 342.70520768 -31.23405468 349.18090254 -30.28094482 356.50793457 C-27.87861534 363.05251601 -24.17792779 367.30664815 -18.11297607 370.66809082 C-14.06673479 372.52297755 -10.83628019 372.63589476 -6.42005348 372.64215565 C-5.7147465 372.64450788 -5.00943952 372.64686011 -4.28275961 372.64928362 C-1.90141227 372.65598075 0.4798806 372.65551518 2.86123657 372.65510559 C4.57872813 372.6584038 6.29621892 372.66212927 8.01370871 372.66624707 C12.7476917 372.67628057 17.48166201 372.67998605 22.21565413 372.68263638 C27.31610769 372.68653557 32.41655116 372.69611434 37.51699829 372.70484924 C49.84368978 372.72462711 62.17038211 372.73468266 74.49708551 372.74357703 C80.30124588 372.74795877 86.10540533 372.75332597 91.90956497 372.7585659 C111.20410409 372.77558138 130.49864263 372.79007477 149.7931881 372.79731464 C154.80216854 372.79922457 159.81114897 372.80114489 164.82012939 372.80310059 C166.06509983 372.80358433 167.31007026 372.80406807 168.59276707 372.80456647 C188.75291846 372.81286374 208.91301044 372.83819415 229.0731359 372.87068126 C249.76947196 372.90376052 270.46577785 372.92176429 291.16214049 372.92495888 C302.78291925 372.92712344 314.40361147 372.93586394 326.02436447 372.96142006 C335.92328832 372.98313906 345.82210462 372.99117162 355.72104959 372.98145328 C360.76972937 372.97691176 365.81818727 372.97878622 370.86683655 372.99821472 C375.49481439 373.01587006 380.12240891 373.01482939 384.75039096 372.99931743 C386.4187631 372.99694493 388.08716194 373.00124623 389.75549333 373.01314608 C407.38371417 373.13102843 421.40893734 369.02576197 434.42608643 356.83605957 C439.76712549 351.41313064 443.76473465 345.51952194 446.71905518 338.50793457 C447.16958252 337.50633301 447.16958252 337.50633301 447.62921143 336.48449707 C451.87827435 325.21953956 451.3769421 310.1025904 446.90655518 299.03527832 C446.51468018 298.20125488 446.12280518 297.36723145 445.71905518 296.50793457 C445.36843018 295.72547363 445.01780518 294.9430127 444.65655518 294.13684082 C437.75903371 280.31784816 425.95610225 271.71925011 411.79718018 266.45324707 C406.34738269 264.7795783 401.21052941 264.38182629 395.52469921 264.37371349 C394.46734655 264.37018515 394.46734655 264.37018515 393.38863322 264.36658552 C391.0267683 264.35992891 388.66495882 264.36035273 386.30308533 264.36076355 C384.59252823 264.35746287 382.88197191 264.35373688 381.17141658 264.34962207 C376.47069389 264.33961767 371.76998396 264.33588781 367.06925213 264.33323276 C361.99960294 264.32932525 356.9299638 264.31974743 351.86032104 264.3110199 C339.61944305 264.29127132 327.37856424 264.28119272 315.1376743 264.27229211 C309.37335085 264.26790783 303.60902831 264.2625415 297.84470558 264.25730324 C278.68471689 264.24029492 259.52472877 264.22579952 240.3647337 264.2185545 C235.39438056 264.21664462 230.42402743 264.21472428 225.45367432 264.21276855 C224.21832299 264.21228481 222.98297166 264.21180107 221.71018545 264.21130268 C201.68655272 264.20299764 181.66297964 264.17765096 161.63937297 264.14518788 C141.08308278 264.11213264 120.52682293 264.09410725 99.97050601 264.09091026 C88.42814706 264.08874408 76.88587517 264.07997921 65.3435421 264.05444908 C55.51667407 264.03276336 45.68991427 264.02468132 35.86302503 264.03441586 C30.84924902 264.03896629 25.83569641 264.03703096 20.82195091 264.01765442 C16.2306924 264.00006375 11.63982096 264.00098716 7.04855857 264.01655171 C5.38909551 264.01893396 3.72960594 264.01457226 2.07018348 264.00272306 C-7.52508869 263.93846001 -15.9233196 264.00896047 -23.62078857 270.47277832 Z M-18.28094482 407.50793457 C-28.97714121 421.55697713 -31.50162567 435.28883327 -30.28094482 452.50793457 C-28.17739279 464.90115078 -21.09335914 476.99014683 -11.30047607 484.92199707 C5.01632374 496.17085054 20.29840642 497.82080431 39.71742249 497.76190186 C41.39363655 497.76421114 43.06984959 497.76739079 44.74606055 497.77135634 C49.31471953 497.77964826 53.88329415 497.77560482 58.45195329 497.76938391 C63.39330812 497.76483749 68.33464897 497.77185387 73.27600098 497.77734375 C82.93993136 497.78621512 92.60383059 497.7843261 102.26776216 497.77851847 C110.12204491 497.7739944 117.97631896 497.77339229 125.83060265 497.7755661 C126.95012858 497.77587257 128.06965452 497.77617903 129.22310549 497.77649479 C131.49761743 497.77713426 133.77212937 497.77778268 136.04664131 497.77843997 C157.34931616 497.78413631 178.65197376 497.77759561 199.95464578 497.76683924 C218.22793084 497.75789823 236.50119049 497.75946164 254.7744751 497.76867676 C276.01075318 497.77938112 297.24701617 497.7835935 318.48329657 497.77745223 C320.74772656 497.77681515 323.01215654 497.7761864 325.27658653 497.7755661 C326.39065495 497.77525755 327.50472338 497.774949 328.65255145 497.7746311 C336.49872118 497.77290512 344.34488133 497.77581705 352.19104958 497.78052521 C361.75054291 497.7861356 371.31000341 497.78461397 380.86949299 497.77396372 C385.74554024 497.76871012 390.62153274 497.76664509 395.49757957 497.77326202 C399.96260071 497.77922959 404.42751642 497.77593303 408.89252802 497.76530692 C410.50598608 497.76307641 412.11945308 497.76420135 413.73290537 497.7690585 C430.6341074 497.92574836 430.6341074 497.92574836 444.71905518 489.50793457 C450.30097008 482.81286322 450.41621014 475.91363161 449.71905518 467.50793457 C448.0419541 461.24406308 444.05385194 457.00522793 438.71905518 453.50793457 C432.1048523 450.43546132 425.74905882 450.07897928 418.55548096 450.12316895 C416.93676842 450.11510979 416.93676842 450.11510979 415.28535461 450.10688782 C412.95773222 450.09715176 410.63007371 450.09415296 408.30243301 450.09724426 C404.62097159 450.10173754 400.93998686 450.0876817 397.25857544 450.06884766 C388.12435252 450.02591683 378.99014114 450.01478625 369.85583496 450.00262451 C362.11893386 449.99111709 354.38225231 449.96763517 346.64544296 449.92793274 C343.01413624 449.91432424 339.38312291 449.91853865 335.75180054 449.92333984 C333.53661722 449.91400488 331.3214372 449.9038375 329.10626221 449.8927002 C327.58675209 449.90192253 327.58675209 449.90192253 326.0365448 449.91133118 C325.11145615 449.90312851 324.18636749 449.89492584 323.23324585 449.88647461 C322.02709971 449.88540585 322.02709971 449.88540585 320.79658699 449.88431549 C318.16797947 449.40809765 317.28603625 448.64776753 315.71905518 446.50793457 C315.06466424 440.40028585 315.06466424 440.40028585 317.09405518 437.63293457 C319.95101603 435.65503859 321.70845534 435.38318585 325.14422607 435.38336182 C326.07490906 435.3807988 327.00559204 435.37823578 327.96447754 435.37559509 C328.98885925 435.37769485 330.01324097 435.37979462 331.06866455 435.38195801 C332.14529358 435.38008987 333.22192261 435.37822174 334.33117676 435.376297 C336.67638407 435.37228516 339.02159531 435.37021744 341.36680603 435.3698349 C346.35660845 435.36642557 351.34627984 435.34506599 356.33603668 435.32460403 C365.63172417 435.28656871 374.92720063 435.25531489 384.22296143 435.25744629 C390.68343247 435.25823478 397.14342814 435.23480488 403.60377502 435.19556427 C406.06280885 435.18511913 408.52189765 435.1835692 410.98094177 435.19121552 C414.43257693 435.20087298 417.88278314 435.17958306 421.33428955 435.15148926 C422.34247742 435.16168594 423.35066528 435.17188263 424.3894043 435.18238831 C431.46146456 435.07969273 436.76756888 433.37467364 442.71905518 429.50793457 C445.00535466 427.27606569 445.00535466 427.27606569 446.28155518 424.82043457 C446.73659424 424.05344238 447.1916333 423.2864502 447.66046143 422.49621582 C450.79617997 416.606619 450.79522295 409.53383933 449.07061768 403.08215332 C446.23722542 396.84626866 441.64441222 392.97852207 435.61791515 389.94898033 C428.78139173 387.4588421 421.3415733 388.0952954 414.16542053 388.12698364 C412.46423549 388.1235251 410.76305269 388.11875922 409.06187457 388.11280191 C404.39613617 388.1002886 399.73058208 388.1064639 395.06484306 388.11576056 C390.02922884 388.12254959 384.99364626 388.11207037 379.95803833 388.1038208 C370.09541297 388.09047829 360.23285608 388.09336395 350.37022803 388.10205872 C342.35183604 388.10883473 334.33346323 388.10975234 326.3150692 388.10648727 C325.17368232 388.10602758 324.03229545 388.10556788 322.85632109 388.10509425 C320.53752687 388.10413506 318.21873264 388.10316242 315.89993843 388.10217647 C294.15269658 388.09362056 272.40549266 388.10345887 250.65825703 388.11957757 C232.00980288 388.13297193 213.36140479 388.13066032 194.71295166 388.11682129 C173.05110952 388.10075352 151.38930067 388.09445403 129.72745341 388.10365808 C127.41567561 388.10461371 125.1038978 388.10555682 122.79211998 388.10648727 C121.6547316 388.1069501 120.51734322 388.10741293 119.34548852 388.10788978 C111.34196419 388.11047674 103.33846101 388.1061148 95.33493996 388.09904861 C85.57338102 388.09061973 75.81189442 388.09294257 66.05034373 388.10889085 C61.07255717 388.11675624 56.09489106 388.11989486 51.11710548 388.10994339 C46.55413429 388.1009595 41.99139441 388.10598989 37.42844399 388.12187605 C35.7837813 388.12520838 34.13909879 388.12356492 32.494449 388.11624868 C12.57863351 388.03449735 -4.42741801 392.21539704 -18.28094482 407.50793457 Z " fill="#000000" transform="translate(46.28094482421875,-0.5079345703125)"/>
<path d="M0 0 C0.95734004 -0.00322445 1.91468008 -0.00644889 2.90103042 -0.00977105 C3.95500113 -0.00822245 5.00897184 -0.00667385 6.09488106 -0.00507832 C7.21280985 -0.00734387 8.33073864 -0.00960943 9.48254406 -0.01194364 C13.24811898 -0.01830018 17.01365805 -0.01745321 20.77923775 -0.01662922 C23.47104211 -0.01961968 26.16284361 -0.02299339 28.85464668 -0.02680683 C35.4192256 -0.03512024 41.98379554 -0.03786198 48.54837929 -0.03841921 C53.88341167 -0.03889405 59.21844108 -0.04094719 64.55347252 -0.04411983 C79.67290405 -0.05292834 94.79232847 -0.05753891 109.91176258 -0.05678936 C111.13490302 -0.05672943 111.13490302 -0.05672943 112.38275337 -0.05666828 C113.19917376 -0.0566274 114.01559415 -0.05658652 114.85675456 -0.0565444 C128.09017789 -0.05613789 141.32357277 -0.06570822 154.55698787 -0.07980665 C168.13872806 -0.09416221 181.72045437 -0.10107728 195.30220234 -0.10021287 C202.9298225 -0.09988061 210.55741284 -0.10264023 218.18502617 -0.11339092 C224.6791037 -0.12248516 231.17313789 -0.12468007 237.66721903 -0.1178815 C240.98123044 -0.1146108 244.29514116 -0.11566092 247.60914803 -0.12323475 C251.20033336 -0.13091203 254.79129838 -0.12633807 258.38247871 -0.11860371 C259.43198798 -0.12374727 260.48149725 -0.12889083 261.56280982 -0.13419026 C262.52536536 -0.12959147 263.48792089 -0.12499267 264.47964478 -0.12025452 C265.72287799 -0.12058057 265.72287799 -0.12058057 266.99122703 -0.12091321 C270.49864686 0.24770832 273.47037218 1.0298678 275.74066353 3.81613445 C276.65414522 7.1960167 276.16448616 9.74900023 275.36566353 13.12863445 C273.75199255 15.30260169 272.89128933 16.03670809 270.20230252 16.50698328 C269.35503643 16.50855448 268.50777034 16.51012568 267.63482952 16.5117445 C266.65597241 16.52080114 265.6771153 16.52985778 264.66859585 16.53918886 C263.59059733 16.53386094 262.51259881 16.52853301 261.40193367 16.52304363 C259.68723016 16.53218029 259.68723016 16.53218029 257.93788618 16.54150152 C254.75984214 16.55530003 251.58212477 16.5555739 248.40406573 16.55012655 C244.97862088 16.54746201 241.55324281 16.56197726 238.12782478 16.57422161 C231.41517239 16.5953021 224.70260631 16.59981498 217.98992474 16.59803373 C212.53521379 16.59672744 207.08052984 16.60052339 201.62582397 16.60795879 C200.05616663 16.61005793 198.48650929 16.61215553 196.91685194 16.61425161 C195.74505529 16.61581691 195.74505529 16.61581691 194.54958599 16.61741382 C179.76670803 16.63632666 164.98387966 16.63526276 150.2009946 16.62844449 C136.66936988 16.62286791 123.13793443 16.64369743 109.60635395 16.67680496 C95.72063094 16.71051597 81.83499866 16.72571356 67.94923395 16.72108793 C60.15000148 16.71884065 52.35094395 16.724124 44.55174637 16.74898052 C37.91227359 16.7699603 31.27307168 16.77361897 24.6335879 16.75468093 C21.24461914 16.74550232 17.85615586 16.7444437 14.46722603 16.76503658 C10.79647513 16.78309016 7.12708505 16.77058152 3.45637703 16.75009441 C2.38060923 16.76261226 1.30484143 16.77513011 0.19647461 16.78802729 C-6.96569602 16.70187866 -6.96569602 16.70187866 -10.33141232 13.81635571 C-12.11029947 10.14679997 -11.71293764 8.01159865 -10.63433647 4.12863445 C-7.84518181 0.32524174 -4.4829109 0.00381157 0 0 Z " fill="#000000" transform="translate(70.63433647155762,433.8713655471802)"/>
<path d="M0 0 C1.20422104 -0.00004028 2.40844208 -0.00008057 3.64915466 -0.00012207 C6.19185615 0.00523391 8.73455716 0.02281961 11.27709961 0.05175781 C15.17287662 0.0936348 19.06692637 0.09282387 22.96289062 0.0859375 C25.43360578 0.09642907 27.90431202 0.10936699 30.375 0.125 C31.54172745 0.12520142 32.7084549 0.12540283 33.91053772 0.12561035 C35.53758888 0.14947815 35.53758888 0.14947815 37.19750977 0.17382812 C38.15061539 0.18224731 39.10372101 0.1906665 40.08570862 0.19934082 C43.09326234 0.66720141 44.46153989 1.46832539 46.62109375 3.59375 C47.49390524 7.02265226 47.95032204 9.48634577 46.93359375 12.90625 C45.31549641 14.98666086 44.06114369 15.60304917 41.62109375 16.59375 C39.16163635 16.85444641 39.16163635 16.85444641 36.38110352 16.8684082 C35.33644424 16.87794022 34.29178497 16.88747223 33.21546936 16.89729309 C32.09248947 16.89638168 30.96950958 16.89547028 29.8125 16.89453125 C28.65362778 16.89881638 27.49475555 16.9031015 26.30076599 16.90751648 C23.85050103 16.91325828 21.40021902 16.91376115 18.94995117 16.90942383 C15.2013643 16.90626497 11.45356736 16.92972222 7.70507812 16.95507812 C5.32421975 16.95735123 2.94335924 16.95805456 0.5625 16.95703125 C-1.11893349 16.97084587 -1.11893349 16.97084587 -2.83433533 16.98493958 C-3.88214676 16.97871078 -4.92995819 16.97248199 -6.00952148 16.96606445 C-6.92789291 16.96669388 -7.84626434 16.9673233 -8.79246521 16.9679718 C-11.9284489 16.51423887 -13.82062054 15.43382325 -16.37890625 13.59375 C-17.8232148 10.70513291 -17.75579131 8.79727299 -17.37890625 5.59375 C-13.05232526 -0.98878651 -7.31804729 -0.1030145 0 0 Z " fill="#000000" transform="translate(76.37890625,185.40625)"/>
</svg>
