<?xml version="1.0" encoding="UTF-8"?>
<svg version="1.1" xmlns="http://www.w3.org/2000/svg" width="512" height="512">
<path d="M0 0 C5.73526989 -0.98034068 11.83986605 0.15918991 17.53125 1.06787109 C38.65253414 4.42497175 59.96331342 4.02243227 81.046875 0.65625 C91.13442009 -0.8316829 91.13442009 -0.8316829 96 0 C98.2972436 3.4458654 98.63595855 5.78216251 99.2890625 9.85546875 C99.39721283 10.51710526 99.50536316 11.17874176 99.61679077 11.86042786 C99.95974208 13.96840683 100.29249185 16.07785113 100.625 18.1875 C100.85609956 19.61924914 101.08786271 21.05089133 101.3203125 22.48242188 C101.88790635 25.98707425 102.44636415 29.49311236 103 33 C103.69859131 33.23074219 104.39718262 33.46148437 105.11694336 33.69921875 C132.64193705 42.84935215 161.53095391 52.66884685 176 80 C181.35094572 92.10086228 181.30865363 105.51250134 182.1875 118.5 C182.38174294 121.21169226 182.57719403 123.92327293 182.77416992 126.63476562 C183.17553535 132.18499866 183.56967892 137.73569341 183.95838261 143.28682709 C184.89140569 156.59810639 185.87230166 169.9057659 186.85611385 183.21336794 C187.53296566 192.37190019 188.20399608 201.53085971 188.87430668 210.68987274 C188.92592703 211.39518426 188.97754737 212.10049579 189.03073198 212.82718039 C189.13498692 214.25167191 189.23923271 215.67616411 189.34346932 217.10065699 C189.70694147 222.06536071 190.07267308 227.02989514 190.4390564 231.99438477 C190.9413302 238.80282022 191.43640631 245.61175226 191.92725754 252.42102051 C192.11116013 254.95845053 192.29716606 257.49572914 192.48546219 260.03283691 C195.31583456 298.22285406 195.31583456 298.22285406 192.76295185 301.67073822 C190.50408415 303.37391945 189.2478614 303.36368105 186.43676758 303.34057617 C185.51603958 303.34034958 184.59531158 303.34012299 183.64668274 303.33988953 C182.65597275 303.32440567 181.66526276 303.30892181 180.64453125 303.29296875 C179.11937141 303.28660149 179.11937141 303.28660149 177.56340027 303.28010559 C174.31283188 303.26329997 171.0628813 303.22564382 167.8125 303.1875 C165.61003499 303.17245562 163.40756027 303.15876679 161.20507812 303.14648438 C155.80317428 303.11339036 150.40163128 303.06317223 145 303 C145.03791971 303.73845028 145.07583942 304.47690056 145.11490822 305.23772812 C146.03638814 323.19738136 146.94577977 341.15760925 147.84168434 359.11855698 C148.27522741 367.80428579 148.71287489 376.48977161 149.16015625 385.17480469 C149.54994953 392.7437718 149.93207127 400.31308035 150.3049463 407.88290048 C150.50269009 411.8918696 150.70429696 415.90056087 150.91508865 419.90886688 C151.11332516 423.68073858 151.30130875 427.45298141 151.48140526 431.22576141 C151.54935115 432.61107456 151.62105667 433.99620915 151.69678307 435.38111877 C151.79955688 437.27095131 151.88754291 439.1615708 151.97476196 441.05218506 C152.02822596 442.1104034 152.08168995 443.16862175 152.13677406 444.25890732 C151.99406781 447.11888713 151.64135977 448.66613336 150 451 C146.3356035 452.2214655 142.96469164 452.14479792 139.14930725 452.14044189 C137.93688068 452.14489858 137.93688068 452.14489858 136.69996065 452.1494453 C133.98233642 452.1581405 131.26475619 452.15964122 128.54711914 452.16113281 C126.60245164 452.16576032 124.65778504 452.17078489 122.71311951 452.17617798 C117.42394141 452.1893085 112.13477601 452.19574795 106.84558415 452.20018864 C103.54341603 452.20311767 100.24125138 452.20722211 96.93908501 452.21169281 C86.61383329 452.22536805 76.28858952 452.23503518 65.96332937 452.2388947 C54.03179257 452.24337884 42.10037014 452.26094314 30.16886812 452.2898953 C20.95353237 452.31148305 11.73822887 452.32159739 2.5228681 452.32293582 C-2.98479356 452.32398573 -8.49234772 452.32993316 -13.99998283 452.34775543 C-19.17836715 452.36418641 -24.35656257 452.36641589 -29.53496361 452.35761642 C-31.4377213 452.35684344 -33.34048894 452.36122304 -35.24322128 452.37107468 C-37.83648286 452.38371652 -40.42906747 452.37796005 -43.02232361 452.36749268 C-43.77903365 452.37554908 -44.53574368 452.38360548 -45.31538433 452.39190602 C-48.42843294 452.36242381 -50.68608951 452.16271274 -53.47138405 450.71897984 C-56.13926793 447.71885506 -55.45589226 443.91941052 -55.32983398 440.11791992 C-55.30589774 438.73360795 -55.30589774 438.73360795 -55.28147793 437.32133007 C-55.21593141 434.21273139 -55.11310286 431.10722088 -55 428 C-54.96165668 426.92028049 -54.92331337 425.84056099 -54.88380814 424.72812271 C-54.56429614 416.18644888 -54.14801716 407.6502288 -53.72265625 399.11328125 C-53.5897395 396.39043437 -53.45808741 393.66752656 -53.32627869 390.94462585 C-53.0516234 385.28769021 -52.77281761 379.63097099 -52.49145508 373.97436523 C-52.16638208 367.43783908 -51.84832979 360.90099827 -51.533804 354.36395675 C-51.22931652 348.03924401 -50.91977616 341.71478815 -50.60796928 335.39043236 C-50.47591453 332.70993057 -50.34567355 330.02934976 -50.21690559 327.34868813 C-50.0370757 323.62716507 -49.85149728 319.90597352 -49.66430664 316.18481445 C-49.61179749 315.07485611 -49.55928833 313.96489777 -49.50518799 312.82130432 C-49.4533284 311.8139624 -49.40146881 310.80662048 -49.34803772 309.76875305 C-49.30471345 308.89082753 -49.26138918 308.01290201 -49.21675205 307.10837269 C-49 305 -49 305 -48 303 C-48.85111359 303.00999275 -48.85111359 303.00999275 -49.71942139 303.02018738 C-55.62408788 303.08654896 -61.52864846 303.13180394 -67.43359375 303.16479492 C-69.63741356 303.17988291 -71.84120335 303.20035576 -74.04492188 303.22631836 C-77.21231497 303.26270058 -80.37931111 303.27972632 -83.546875 303.29296875 C-85.02519806 303.31619453 -85.02519806 303.31619453 -86.53338623 303.33988953 C-87.4540387 303.34011612 -88.37469116 303.34034271 -89.32324219 303.34057617 C-90.53569611 303.35056892 -90.53569611 303.35056892 -91.77264404 303.36076355 C-94.72116456 302.8831934 -95.90113463 302.14118806 -98 300 C-98.43146324 296.83963776 -98.43146324 296.83963776 -98.32260132 292.93713379 C-98.29827013 291.87563354 -98.29827013 291.87563354 -98.27344739 290.79268885 C-98.21038259 288.52638772 -98.11177376 286.26439569 -98 284 C-97.96514763 283.28932814 -97.93029527 282.57865627 -97.89438677 281.8464489 C-97.61577279 276.56069723 -97.23157465 271.28410937 -96.83837891 266.00585938 C-96.71306544 264.26596986 -96.5882482 262.52604455 -96.46388245 260.78608704 C-96.12815996 256.11009271 -95.78528267 251.4346495 -95.44078493 246.75929451 C-95.07901819 241.83568766 -94.72322651 236.91164837 -94.36654663 231.9876709 C-93.76695501 223.72309045 -93.16274204 215.45885792 -92.55566406 207.19482422 C-91.85671522 197.67947779 -91.16481692 188.16363892 -90.47676718 178.64749861 C-89.81112592 169.44324565 -89.14072858 160.23934505 -88.46812057 151.03559875 C-88.18359856 147.14140769 -87.90064868 143.24710732 -87.61900711 139.35270691 C-87.28632499 134.75581304 -86.94942028 130.15924644 -86.60943413 125.56288719 C-86.48628982 123.88941418 -86.36450717 122.21584024 -86.24429131 120.54215431 C-84.50315039 96.33741789 -82.24721873 76.02156314 -63 59 C-52.16178553 50.22886767 -39.68679382 44.39629688 -26.6875 39.625 C-25.7809668 39.29121338 -24.87443359 38.95742676 -23.94042969 38.61352539 C-18.03291993 36.51962223 -12.17648519 35.05701876 -6 34 C-5.95407715 33.27329102 -5.9081543 32.54658203 -5.86083984 31.79785156 C-5.41783718 25.12660582 -4.56977622 18.5428472 -3.5625 11.9375 C-3.44028076 11.10436279 -3.31806152 10.27122559 -3.19213867 9.4128418 C-3.06814697 8.62562744 -2.94415527 7.83841309 -2.81640625 7.02734375 C-2.70756104 6.32343506 -2.59871582 5.61952637 -2.48657227 4.89428711 C-2 3 -2 3 0 0 Z M8 11 C7.49494737 13.89503383 6.9957978 16.79087953 6.5 19.6875 C6.35691406 20.50412109 6.21382813 21.32074219 6.06640625 22.16210938 C5.38834038 26.14978248 4.80141608 29.93730404 5 34 C9.967086 35.83375567 14.85511986 36.80849365 20.0625 37.625 C20.89434814 37.75688721 21.72619629 37.88877441 22.58325195 38.0246582 C29.48591356 39.0535066 36.01124858 39.24666181 43 39 C43 31.08 43 23.16 43 15 C41.05996094 14.79503906 39.11992187 14.59007812 37.12109375 14.37890625 C34.55988882 14.10683686 31.99869129 13.83469779 29.4375 13.5625 C28.16068359 13.42779297 26.88386719 13.29308594 25.56835938 13.15429688 C24.32763672 13.02216797 23.08691406 12.89003906 21.80859375 12.75390625 C20.67220459 12.63345947 19.53581543 12.5130127 18.36499023 12.38891602 C14.89938241 11.9883709 11.45129417 11.50838964 8 11 Z M81.75 11.62109375 C80.12384766 11.81735352 80.12384766 11.81735352 78.46484375 12.01757812 C77.32144531 12.15615234 76.17804688 12.29472656 75 12.4375 C72.77088065 12.70742233 70.5417147 12.97696006 68.3125 13.24609375 C67.31863281 13.36654053 66.32476562 13.4869873 65.30078125 13.61108398 C61.20281353 14.09392885 57.10107773 14.5443247 53 15 C53 22.92 53 30.84 53 39 C61.87929341 39.44396467 70.00038886 38.5354375 78.75 37.0625 C79.83410156 36.88041992 80.91820312 36.69833984 82.03515625 36.51074219 C86.88147512 36.06310541 86.88147512 36.06310541 91 34 C90.83120295 26.23533581 89.53978893 18.5942988 88 11 C85.91260318 11 83.81769382 11.37058209 81.75 11.62109375 Z M-7.42578125 44.93359375 C-8.213479 45.16618896 -9.00117676 45.39878418 -9.81274414 45.63842773 C-10.63766357 45.90212158 -11.46258301 46.16581543 -12.3125 46.4375 C-13.18189209 46.70828369 -14.05128418 46.97906738 -14.94702148 47.25805664 C-35.72270979 53.94476644 -58.71881752 64.20727128 -69.30278015 84.49752808 C-73.01673984 92.715308 -73.99721249 100.33304152 -74.51953125 109.2578125 C-74.62797217 110.83641592 -74.73856557 112.41487259 -74.85102844 113.99319458 C-75.10494427 117.59516597 -75.34717465 121.19770822 -75.58306885 124.80090332 C-76.04078663 131.70968009 -76.55517642 138.61396757 -77.07177734 145.51855469 C-77.26749736 148.13962121 -77.46312349 150.76069475 -77.65866089 153.3817749 C-77.70816662 154.04529504 -77.75767236 154.70881518 -77.80867827 155.39244199 C-78.3697504 162.9236851 -78.91690739 170.45593154 -79.46289062 177.98828125 C-79.51290277 178.67820774 -79.56291492 179.36813422 -79.61444259 180.07896757 C-79.91951315 184.28777465 -79.91951315 184.28777465 -80.22452366 188.49658608 C-80.63994345 194.22663014 -81.0584688 199.95644454 -81.47761315 205.68621719 C-81.88713286 211.28604527 -82.29469727 216.88601338 -82.70071441 222.4860965 C-82.94097831 225.79965255 -83.1822069 229.11313308 -83.42493248 232.42650986 C-83.69284217 236.08739257 -83.95754807 239.74849343 -84.22143555 243.40966797 C-84.30087906 244.48586395 -84.38032257 245.56205994 -84.46217346 246.67086792 C-84.56926132 248.17012817 -84.56926132 248.17012817 -84.67851257 249.69967651 C-84.74098521 250.55958632 -84.80345785 251.41949612 -84.8678236 252.30546379 C-85.02616488 255.53339494 -85 258.76818759 -85 262 C-72.13 262 -59.26 262 -46 262 C-45.80365967 257.83528076 -45.60731934 253.67056152 -45.4050293 249.37963867 C-44.7554397 235.64463397 -44.09042247 221.91041313 -43.41737652 208.17653942 C-43.00954711 199.84680244 -42.60705214 191.51687115 -42.21704102 183.1862793 C-41.87715231 175.92658444 -41.52732983 168.66744872 -41.16549617 161.4088133 C-40.97419963 157.56425305 -40.78793662 153.71959553 -40.61356163 149.87422752 C-40.44934667 146.25637815 -40.27187771 142.63942456 -40.08413315 139.02272224 C-39.98569605 137.05924407 -39.90140457 135.09507282 -39.81748962 133.13092041 C-39.75446655 131.96564316 -39.69144348 130.80036591 -39.62651062 129.59977722 C-39.55322808 128.07743611 -39.55322808 128.07743611 -39.47846508 126.52434063 C-38.93758689 123.67071377 -38.36734638 122.65270619 -36 121 C-31.57894737 121.42105263 -31.57894737 121.42105263 -30 123 C-29.88799772 125.31609887 -29.85004535 127.59335521 -29.86291504 129.91023254 C-29.86554682 130.66044924 -29.86817861 131.41066593 -29.87089014 132.18361646 C-29.96987623 143.61168542 -30.62342253 155.02433384 -31.19335938 166.4362793 C-31.32179548 169.06939548 -31.44990076 171.70252583 -31.57759094 174.3356781 C-31.8515878 179.97276016 -32.12853847 185.60969058 -32.407547 191.24652672 C-32.81122271 199.40264177 -33.20998008 207.55899176 -33.6075415 215.71540687 C-34.25331516 228.96203589 -34.90254515 242.20849302 -35.55419922 255.45483398 C-36.18592138 268.29624726 -36.81672695 281.13770473 -37.44580078 293.97924805 C-37.48463172 294.77190414 -37.52346267 295.56456024 -37.5634703 296.38123622 C-37.98743228 305.03635931 -38.41099574 313.69150183 -38.83405304 322.3466692 C-38.87123047 323.10725543 -38.90840791 323.86784167 -38.94671193 324.65147597 C-39.09531536 327.69177388 -39.24391315 330.73207207 -39.3924585 333.77237282 C-39.82680389 342.66202306 -40.26239063 351.55161037 -40.70024073 360.44108871 C-41.00682393 366.66625841 -41.31204332 372.89149424 -41.61678123 379.11675453 C-41.74204041 381.6701776 -41.86780886 384.22357575 -41.99411964 386.77694702 C-42.16623645 390.25741799 -42.33656939 393.73797187 -42.50646973 397.21855164 C-42.55705205 398.23225269 -42.60763438 399.24595375 -42.65974951 400.29037303 C-42.70503365 401.22538545 -42.75031779 402.16039788 -42.79697418 403.12374401 C-42.85621055 404.32768426 -42.85621055 404.32768426 -42.91664362 405.55594653 C-43.01258956 408.36913248 -43 411.18517837 -43 414 C17.06 414 77.12 414 139 414 C138.38558766 394.95321738 137.72959601 375.93442732 136.78491211 356.90551758 C136.66631187 354.47710766 136.54794698 352.04868625 136.42979431 349.62025452 C136.17861316 344.46695194 135.92589858 339.31372791 135.67191887 334.16056252 C135.30417807 326.69760712 134.93971284 319.23449521 134.57621963 311.77133187 C133.98509822 299.63531063 133.39216148 287.49937893 132.79760742 275.36352539 C132.74462461 274.2820341 132.74462461 274.2820341 132.69057143 273.17869451 C132.33145666 265.84886293 131.97215372 258.51904058 131.61275664 251.18922283 C131.43248824 247.51262431 131.25224615 243.8360245 131.07202148 240.15942383 C131.03644026 239.43357819 131.00085904 238.70773255 130.9641996 237.95989159 C130.36995926 225.83618054 129.77800389 213.712359 129.18772513 201.58845443 C128.85754796 194.80882215 128.52615883 188.02925318 128.19178581 181.24982643 C127.8782778 174.892586 127.56740373 168.53522229 127.25852394 162.17775536 C127.14506017 159.85257383 127.03060008 157.52744067 126.91504669 155.20236206 C126.58071662 148.46927633 126.26976062 141.73598668 126 135 C125.9692599 134.29706999 125.93851981 133.59413997 125.90684819 132.86990905 C125.83571098 131.12980363 125.78877065 129.38875063 125.74464417 127.64775085 C125.71963616 126.77048182 125.69462816 125.8932128 125.66886234 124.98935986 C125.77813777 124.3328711 125.8874132 123.67638235 126 123 C129 121 129 121 131.625 121.3125 C134 122 134 122 135 123 C135.26008072 126.08565382 135.45580174 129.15451443 135.61328125 132.24609375 C135.66760818 133.24365692 135.72193512 134.24122009 135.77790833 135.26901245 C135.96087654 138.65827087 136.13667582 142.04786399 136.3125 145.4375 C136.44034836 147.83033532 136.5684474 150.22315726 136.69677734 152.6159668 C137.48262456 167.41079091 138.20880124 182.20831195 138.91561699 197.00710106 C139.05034452 199.82679729 139.18552816 202.64647135 139.32081604 205.46614075 C139.72417765 213.88140743 140.12531628 222.29674427 140.51464748 230.71267319 C140.67863645 234.24042097 140.84618238 237.76799395 141.01453209 241.29553604 C141.09293159 242.95608124 141.16971388 244.61670363 141.24482155 246.27740097 C141.34810181 248.55795052 141.45683993 250.83817705 141.56689453 253.1184082 C141.65658005 255.04799126 141.65658005 255.04799126 141.74807739 257.01655579 C141.80819324 259.9250281 141.80819324 259.9250281 143 262 C155.54 262 168.08 262 181 262 C180.31070534 244.80626373 179.19747819 227.66030647 177.94517827 210.5002265 C177.72799517 207.52042437 177.51250705 204.54050043 177.29692262 201.56058228 C176.78811094 194.52911188 176.27602484 187.49788522 175.76196289 180.46679688 C175.23469117 173.25401416 174.71384237 166.04078676 174.19594103 158.8273257 C173.74726599 152.58186511 173.29422746 146.33673086 172.83783621 140.09182942 C172.56693398 136.38412144 172.29769168 132.67631289 172.03285408 128.96816635 C171.73793361 124.84141868 171.43392289 120.71538725 171.12915039 116.58935547 C171.0444046 115.38601059 170.95965881 114.18266571 170.87234497 112.94285583 C169.74615863 97.95121776 167.92418049 85.7110159 158 74 C157.28263672 73.13955078 157.28263672 73.13955078 156.55078125 72.26171875 C142.9364264 57.34422665 118.53461008 47.41899793 99 44 C95.84547689 43.97383689 93.37085375 44.29819372 90.34619141 45.14794922 C86.14101616 46.21872564 81.91467908 46.90987211 77.6328125 47.59765625 C76.80080322 47.73369263 75.96879395 47.869729 75.11157227 48.0098877 C73.07480451 48.34252564 71.03745902 48.67162272 69 49 C69.01451706 50.78072655 69.01451706 50.78072655 69.02932739 52.59742737 C69.11407877 63.79443494 69.14618435 74.99052599 69.12697029 86.18785191 C69.1187782 91.94449452 69.12902427 97.69986536 69.18164062 103.45629883 C69.23175459 109.01359553 69.23313079 114.56897846 69.20095444 120.12638664 C69.19720801 122.24466005 69.21091737 124.3630397 69.24249649 126.48108101 C69.47343381 143.09698527 69.47343381 143.09698527 65.82562256 147.80831909 C63.26331046 149.62922728 60.90792451 150.8341697 58 152 C56.74094409 152.79839492 55.48968386 153.60934532 54.25 154.4375 C50.56221997 156.21047117 49.03931577 156.49480429 45 156 C42.05499955 154.61086954 39.39296187 152.86696183 36.6875 151.0625 C35.95982422 150.59392578 35.23214844 150.12535156 34.48242188 149.64257812 C29.25979663 146.25979663 29.25979663 146.25979663 28 145 C27.87466913 142.01776826 27.81388422 139.05758366 27.79467773 136.07397461 C27.78477814 135.13748581 27.77487854 134.20099701 27.76467896 133.23612976 C27.73296247 130.12489392 27.70826659 127.01364278 27.68359375 123.90234375 C27.66303297 121.75142508 27.64203675 119.60051054 27.62062073 117.44960022 C27.5653095 111.77622811 27.51594028 106.10281899 27.46777344 100.42938232 C27.41762433 94.64494516 27.36190394 88.86056204 27.30664062 83.07617188 C27.19894842 71.71749402 27.09752818 60.35876935 27 49 C23.31280972 48.35239023 19.6251943 47.707233 15.9375 47.0625 C14.89916016 46.88009766 13.86082031 46.69769531 12.79101562 46.50976562 C2.66740242 44.19240718 2.66740242 44.19240718 -7.42578125 44.93359375 Z M38 50 C37.79658419 61.50046932 37.63150968 72.99974226 37.53369045 84.50160408 C37.48673915 89.84257005 37.42307174 95.18224061 37.32104492 100.52246094 C37.22317774 105.67728243 37.16942687 110.83085907 37.14610481 115.98653793 C37.12948799 117.95228554 37.09703648 119.91796571 37.04842949 121.88318253 C36.37459579 132.27743068 36.37459579 132.27743068 39.88772583 141.64105225 C42.34983573 143.45766361 43.98124458 144.48718807 47 145 C49.52074249 144.41993995 49.52074249 144.41993995 52 143 C53.07907623 142.47662048 54.15815247 141.95324097 55.26992798 141.41400146 C58.37866452 139.163526 58.37866452 139.163526 58.7215271 135.14019775 C58.73889033 133.55216192 58.72302719 131.96355516 58.68115234 130.37597656 C58.6820285 129.50732468 58.68290466 128.63867279 58.68380737 127.74369812 C58.67963013 124.87508932 58.63297302 122.00882473 58.5859375 119.140625 C58.57474582 117.15095294 58.5662055 115.16126433 58.56021118 113.17156982 C58.53731075 107.9366891 58.47837659 102.70280852 58.4119873 97.46832275 C58.35059123 92.12615489 58.32320186 86.78382529 58.29296875 81.44140625 C58.22863448 70.96042755 58.12309893 60.48045344 58 50 C51.4 50 44.8 50 38 50 Z M-86 273 C-87.14925558 282.81757652 -87.14925558 282.81757652 -87 292 C-74.13 292 -61.26 292 -48 292 C-46.77260299 283.52453352 -46.77260299 283.52453352 -47 273 C-59.87 273 -72.74 273 -86 273 Z M143 273 C143.33 279.27 143.66 285.54 144 292 C156.87 292 169.74 292 183 292 C183.28284271 280.80138769 183.28284271 280.80138769 182 273 C169.13 273 156.26 273 143 273 Z M-43 425 C-44.14077657 428.42232972 -44.09815117 431.08673217 -44.0625 434.6875 C-44.05347656 435.86699219 -44.04445312 437.04648437 -44.03515625 438.26171875 C-44.02355469 439.16535156 -44.01195312 440.06898438 -44 441 C-15.9772374 442.20248149 12.04815544 442.15495267 40.09179688 442.13037109 C46.67678702 442.12467438 53.26173671 442.12805134 59.84672546 442.13382339 C86.58077863 442.15357501 113.28586718 442.11308887 140 441 C140 435.72 140 430.44 140 425 C79.61 425 19.22 425 -43 425 Z " fill="#000000" transform="translate(208,30)"/>
<path d="M0 0 C3 0.25 3 0.25 5 2.25 C5.3125 5.75 5.3125 5.75 5 9.25 C2 11.25 2 11.25 -1.125 10.9375 C-4 10.25 -4 10.25 -5 9.25 C-5.1875 5.8125 -5.1875 5.8125 -5 2.25 C-3 0.25 -3 0.25 0 0 Z " fill="#000000" transform="translate(256,148.75)"/>
<path d="M0 0 C2.875 0.6875 2.875 0.6875 3.875 1.6875 C4.125 5.125 4.125 5.125 3.875 8.6875 C0.875 10.6875 0.875 10.6875 -2.25 10.375 C-5.125 9.6875 -5.125 9.6875 -6.125 8.6875 C-6.375 5.25 -6.375 5.25 -6.125 1.6875 C-3.125 -0.3125 -3.125 -0.3125 0 0 Z " fill="#000000" transform="translate(257.125,110.3125)"/>
<path d="M0 0 C3 0.25 3 0.25 5 2.25 C5.375 5.1875 5.375 5.1875 5 8.25 C3.3125 10.25 3.3125 10.25 1 11.25 C-1.39263407 10.58228817 -3.22097385 10.02902615 -5 8.25 C-5.1875 5.3125 -5.1875 5.3125 -5 2.25 C-3 0.25 -3 0.25 0 0 Z " fill="#000000" transform="translate(256,90.75)"/>
<path d="M0 0 C3 0.25 3 0.25 5 2.25 C5.25 5.25 5.25 5.25 5 8.25 C3 10.25 3 10.25 0 10.5 C-3 10.25 -3 10.25 -5 8.25 C-5.25 5.25 -5.25 5.25 -5 2.25 C-3 0.25 -3 0.25 0 0 Z " fill="#000000" transform="translate(256,129.75)"/>
</svg>
