<?xml version="1.0" encoding="UTF-8"?>
<svg version="1.1" xmlns="http://www.w3.org/2000/svg" width="512" height="512">
<path d="M0 0 C1.051875 0.18626953 2.10375 0.37253906 3.1875 0.56445312 C5.75060908 1.01882246 8.31306645 1.47655697 10.875 1.9375 C10.86532196 3.13717911 10.85564392 4.33685822 10.84567261 5.57289124 C10.76092413 16.88762592 10.72881502 28.20145364 10.74802971 39.51650333 C10.75622206 45.33367496 10.74597339 51.14958806 10.69335938 56.96655273 C10.64324838 62.58219792 10.64186767 68.19594916 10.67404556 73.81170464 C10.67779221 75.9523063 10.66408077 78.09301307 10.63250351 80.23338509 C9.97350673 91.63860532 9.97350673 91.63860532 14.06695557 101.75924683 C16.62130198 103.56546525 18.98654039 104.76553408 21.875 105.9375 C22.97783712 106.72332292 24.06499075 107.53229736 25.125 108.375 C28.5261172 110.30745296 29.99236958 110.41311079 33.875 109.9375 C36.67034613 108.55438982 39.15447564 106.81142132 41.6875 105 C42.36748047 104.53142578 43.04746094 104.06285156 43.74804688 103.58007812 C46.95609967 101.43855527 46.95609967 101.43855527 49.875 98.9375 C50.00034988 95.92473889 50.06112016 92.93380417 50.08032227 89.91967773 C50.09022186 88.97343536 50.10012146 88.02719299 50.11032104 87.05227661 C50.14203803 83.90857489 50.16673361 80.76485802 50.19140625 77.62109375 C50.21196698 75.44775488 50.23296321 73.27442009 50.25437927 71.10108948 C50.30969095 65.36853326 50.35905997 59.63594042 50.40722656 53.90332031 C50.45737535 48.05856042 50.5130959 42.213854 50.56835938 36.36914062 C50.67605213 24.89197272 50.77747225 13.41475847 50.875 1.9375 C55.16221843 1.05993319 59.45523668 0.21479552 63.75 -0.625 C65.55597656 -0.9952832 65.55597656 -0.9952832 67.3984375 -1.37304688 C79.26718443 -3.66294098 88.10057601 -2.42111586 99.4375 1.4375 C100.48236572 1.79062256 101.52723145 2.14374512 102.60375977 2.50756836 C117.75014118 7.8024749 131.8571391 15.02629903 142.875 26.9375 C143.35582031 27.42476562 143.83664062 27.91203125 144.33203125 28.4140625 C150.95346226 35.48809766 153.95483855 43.25164098 154.93832397 52.83357239 C155.06070893 53.9493758 155.06070893 53.9493758 155.18556631 55.08772069 C155.99074461 62.62063284 156.57704996 70.16899458 157.11181641 77.7253418 C157.22016371 79.21565547 157.32884223 80.7059451 157.43782043 82.19621277 C157.72837291 86.18283865 158.01422306 90.16978808 158.29900789 94.1568296 C158.59943362 98.35284852 158.90393185 102.54857223 159.20785522 106.74433899 C159.71639619 113.77330076 160.22196266 120.80247137 160.72558594 127.83178711 C161.30709508 135.94783369 161.89284842 144.06356529 162.48094618 152.17913693 C163.04899589 160.01878444 163.61458537 167.85860738 164.17887497 175.69852638 C164.41819862 179.02338556 164.65828535 182.34818831 164.89897537 185.67294884 C165.18172561 189.58076353 165.46228784 193.48872945 165.74117088 197.39682198 C165.84363027 198.82793319 165.94681487 200.2589927 166.05078697 201.68999481 C166.19281023 203.64647244 166.33190145 205.60316224 166.47085571 207.55986023 C166.54937586 208.65314982 166.627896 209.74643942 166.70879555 210.872859 C166.87244993 213.89047939 166.875 216.91544514 166.875 219.9375 C153.345 219.9375 139.815 219.9375 125.875 219.9375 C125.06715337 216.70611348 124.68970724 214.17107912 124.53369141 210.89459229 C124.48327698 209.87727524 124.43286255 208.85995819 124.38092041 207.81181335 C124.3299823 206.70119034 124.27904419 205.59056732 124.2265625 204.44628906 C124.16950134 203.27171646 124.11244019 202.09714386 124.0536499 200.88697815 C123.89788722 197.66529716 123.74568039 194.44347116 123.59496307 191.22155094 C123.43563015 187.83495355 123.27154273 184.44858671 123.10791016 181.06219482 C122.79789342 174.63228806 122.49177848 168.20220213 122.18722725 161.77203441 C121.64396443 150.30488294 121.0936374 138.83806896 120.54261589 127.37128806 C120.31901427 122.71459344 120.0978717 118.05778598 119.87744141 113.40093994 C119.29883721 101.24000746 118.70163372 89.08445617 117.875 76.9375 C115.565 76.9375 113.255 76.9375 110.875 76.9375 C110.64649767 91.00187232 111.36174814 104.99854284 112.06835938 119.04150391 C112.19678252 121.65164011 112.32484989 124.26179383 112.45259094 126.8719635 C112.72678085 132.46429229 113.00372994 138.05647872 113.282547 143.64857864 C113.68634763 151.74872561 114.08509549 159.84911557 114.4825415 167.94957654 C115.12864701 181.11658716 115.77772744 194.28344916 116.42919922 207.45019531 C116.46807721 208.23596909 116.5069552 209.02174286 116.54701132 209.83132796 C116.743997 213.81244708 116.94101761 217.79356447 117.13805389 221.77468109 C117.53251396 229.74495925 117.92675573 237.71524819 118.32080078 245.68554688 C118.35963172 246.47095547 118.39846267 247.25636407 118.4384703 248.06557293 C119.08725892 261.18999226 119.73333244 274.314544 120.37757158 287.43918741 C120.7740642 295.51386502 121.17302139 303.58841363 121.57524073 311.66280805 C121.88349496 317.85423875 122.18825779 324.04583682 122.49178123 330.23750114 C122.61634844 332.76663422 122.74208826 335.29570988 122.86911964 337.82472038 C123.04308937 341.29141509 123.21277081 344.7582956 123.38146973 348.22525024 C123.43205205 349.21243974 123.48263438 350.19962924 123.53474951 351.21673357 C123.89778775 358.81734472 123.875 366.30090259 123.875 373.9375 C62.495 373.9375 1.115 373.9375 -62.125 373.9375 C-62.125 365.34323042 -62.0740434 356.87133536 -61.63146973 348.3079071 C-61.57838355 347.2257984 -61.52529737 346.1436897 -61.47060251 345.02878982 C-61.29420684 341.44960598 -61.11292761 337.87068721 -60.93164062 334.29174805 C-60.80325489 331.70647689 -60.67518629 329.12118997 -60.54740906 326.53588867 C-60.27289845 320.99047382 -59.99597382 315.44518392 -59.717453 309.8999691 C-59.31392213 301.86430208 -58.91506506 293.82840797 -58.5174585 285.79244588 C-57.87092948 272.72650329 -57.22194589 259.66068403 -56.57080078 246.5949707 C-56.51248379 245.42476578 -56.51248379 245.42476578 -56.45298868 244.23092035 C-56.01941676 235.53149429 -55.58545987 226.83208747 -55.15130615 218.13269043 C-54.99392262 214.97884187 -54.83655433 211.82499255 -54.67919922 208.67114258 C-54.6209528 207.50374681 -54.6209528 207.50374681 -54.5615297 206.31276729 C-53.91215262 193.29577788 -53.26607383 180.27862689 -52.62242842 167.26135284 C-52.22636974 159.25435384 -51.82746074 151.24750693 -51.42475927 143.24083922 C-51.11583592 137.09426181 -50.81126109 130.94747578 -50.50821877 124.80060577 C-50.3839196 122.29368392 -50.25819525 119.78683223 -50.13088036 117.28006172 C-49.46505913 104.15496217 -48.92831013 91.08090504 -49.125 77.9375 C-51.52219432 77.25791397 -51.52219432 77.25791397 -54.125 76.9375 C-57.13784538 79.95034538 -56.60427337 83.45042264 -56.77929688 87.51000977 C-56.8251442 88.40029373 -56.87099152 89.2905777 -56.91822815 90.20783997 C-57.06906813 93.18115525 -57.20638784 96.15494017 -57.34375 99.12890625 C-57.44738142 101.22505189 -57.55184767 103.32115641 -57.65710449 105.41722107 C-57.93429217 110.98245461 -58.20008581 116.54817741 -58.46356201 122.11407471 C-58.72552103 127.60828126 -58.99792409 133.10196661 -59.26953125 138.59570312 C-60.05132268 154.47034099 -60.82459634 170.34539359 -61.5530777 186.2225771 C-61.73066623 190.08353224 -61.91139993 193.94433692 -62.09251404 197.8051281 C-62.21610248 200.47025127 -62.33473488 203.13556564 -62.45324707 205.80091858 C-62.52780889 207.39455395 -62.60262229 208.98817758 -62.67773438 210.58178711 C-62.70837479 211.30482718 -62.7390152 212.02786724 -62.77058411 212.77281761 C-63.01112556 217.70975112 -63.01112556 217.70975112 -64.125 219.9375 C-77.655 219.9375 -91.185 219.9375 -105.125 219.9375 C-103.32691593 190.74492605 -101.34214892 161.56838017 -99.25647163 132.39510822 C-98.69191892 124.49503605 -98.13337597 116.59463035 -97.58935547 108.69311523 C-97.10788666 101.70013586 -96.61560584 94.70801657 -96.11034286 87.71671456 C-95.84545731 84.04687213 -95.58558123 80.37684841 -95.33874893 76.70574379 C-95.06445717 72.62973666 -94.76583428 68.55584818 -94.46533203 64.48168945 C-94.38934784 63.2976503 -94.31336365 62.11361115 -94.2350769 60.89369202 C-93.02344239 45.18970468 -88.18455043 33.10512312 -76.77734375 22.19140625 C-63.73910022 11.11177956 -47.7849518 4.50218095 -31.625 -0.625 C-30.82497559 -0.88885498 -30.02495117 -1.15270996 -29.20068359 -1.42456055 C-19.4650433 -4.33395792 -9.79098919 -1.76262719 0 0 Z " fill="#4D81C2" transform="translate(225.125,74.0625)"/>
<path d="M0 0 C62.04 0 124.08 0 188 0 C188.33 5.94 188.66 11.88 189 18 C174.3960383 18.20570274 159.79193142 18.39328548 145.1875 18.5625 C143.54057474 18.5815999 143.54057474 18.5815999 141.86037827 18.60108566 C107.33755658 18.9953207 72.83477366 19.00380955 38.3125 18.5625 C37.30908443 18.54968616 36.30566887 18.53687233 35.27184677 18.5236702 C23.18092979 18.36761338 11.09039823 18.1919249 -1 18 C-0.505 9.09 -0.505 9.09 0 0 Z " fill="#02A8DD" transform="translate(162,457)"/>
<path d="M0 0 C7.26 0 14.52 0 22 0 C22.20339744 11.89162283 22.3684804 23.78208923 22.46630955 35.67505836 C22.51326504 41.1976042 22.57694111 46.71889768 22.67895508 52.24072266 C22.77680578 57.57060399 22.83056998 62.89928166 22.85389519 68.22999191 C22.87051483 70.26271901 22.90297161 72.29538074 22.95157051 74.32759476 C23.31502615 90.15662064 23.31502615 90.15662064 20.11227417 94.6461792 C16.93911514 96.95156093 14.65985454 98.06127479 10.70265198 97.91519165 C6.64129039 96.53990388 3.09934147 95.03433608 0 92 C-1.12309987 88.98731221 -1.01699299 86.17293527 -0.90820312 82.98706055 C-0.90937134 82.08900192 -0.91053955 81.1909433 -0.91174316 80.26567078 C-0.90618002 77.30443313 -0.8440156 74.34725023 -0.78125 71.38671875 C-0.76632508 69.33122457 -0.75493925 67.2757019 -0.74694824 65.22016907 C-0.71643409 59.81563442 -0.63787638 54.41282581 -0.54931641 49.00897217 C-0.46740988 43.49254711 -0.43092644 37.97584251 -0.390625 32.45898438 C-0.30488125 21.63844335 -0.16418742 10.81963538 0 0 Z M11 12 C10.01 12.33 9.02 12.66 8 13 C7.32198966 15.90073181 7.32198966 15.90073181 7 19 C8.83265325 21.26839983 8.83265325 21.26839983 11.5625 21.1875 C13.94689723 21.27003323 13.94689723 21.27003323 15 20 C15.41717279 17.58462162 15.41717279 17.58462162 15 15 C13.2890789 13.02901574 13.2890789 13.02901574 11 12 Z M7 34 C6.58333333 36.5 6.58333333 36.5 7 39 C7.66 39.66 8.32 40.32 9 41 C12.30683466 40.71016731 12.30683466 40.71016731 15 39 C15.2500773 36.54190002 15.2500773 36.54190002 15 34 C14.34 33.34 13.68 32.68 13 32 C9.81509993 31.7226499 9.81509993 31.7226499 7 34 Z M9 52 C6.71271266 53.83883881 6.71271266 53.83883881 6.875 56.625 C6.91625 57.40875 6.9575 58.1925 7 59 C9.475 59.99 9.475 59.99 12 61 C13.32 59.68 14.64 58.36 16 57 C14.78969026 54.42672567 14.78969026 54.42672567 13 52 C11.68 52 10.36 52 9 52 Z M11 71 C8.7109211 72.02901574 8.7109211 72.02901574 7 74 C6.58282721 76.58462162 6.58282721 76.58462162 7 79 C8.11836224 80.34404775 8.11836224 80.34404775 11 80.125 C13.88163776 80.34404775 13.88163776 80.34404775 15 79 C14.71269945 76.66055264 14.38063221 74.3260857 14 72 C13.01 71.67 12.02 71.34 11 71 Z " fill="#02A8DD" transform="translate(245,77)"/>
<path d="M0 0 C0.98842896 0.12846313 0.98842896 0.12846313 1.99682617 0.25952148 C5.05995064 0.65561747 8.12371191 1.04657155 11.1875 1.4375 C12.22326172 1.57220703 13.25902344 1.70691406 14.32617188 1.84570312 C15.88754883 2.04389648 15.88754883 2.04389648 17.48046875 2.24609375 C18.41785889 2.36654053 19.35524902 2.4869873 20.32104492 2.61108398 C25.86902568 3.19758165 31.43753766 3.57211828 37 4 C37 12.91 37 21.82 37 31 C24.61269615 31 24.61269615 31 20.39453125 30.4140625 C19.01297852 30.22457031 19.01297852 30.22457031 17.60351562 30.03125 C16.68248047 29.8971875 15.76144531 29.763125 14.8125 29.625 C13.87986328 29.49867187 12.94722656 29.37234375 11.98632812 29.2421875 C6.5445376 28.47735398 1.30501943 27.43378904 -4 26 C-3.71437308 23.3533931 -3.42163649 20.70787763 -3.125 18.0625 C-3.04636719 17.32708984 -2.96773437 16.59167969 -2.88671875 15.83398438 C-2.27648392 10.45922377 -1.26788829 5.25745826 0 0 Z " fill="#02A8DC" transform="translate(215,37)"/>
<path d="M0 0 C2.28345572 2.28345572 2.37784669 3.07675229 2.8515625 6.17578125 C2.98046875 7.00400391 3.109375 7.83222656 3.2421875 8.68554688 C3.36851562 9.55244141 3.49484375 10.41933594 3.625 11.3125 C3.82609375 12.59543945 3.82609375 12.59543945 4.03125 13.90429688 C4.64767459 17.96452209 5.18688269 21.88008616 5 26 C1.85550776 26.65247647 -1.29080756 27.29572575 -4.4375 27.9375 C-5.31599609 28.11990234 -6.19449219 28.30230469 -7.09960938 28.49023438 C-16.59750012 30.41785058 -25.18259643 31 -35 31 C-35 22.09 -35 13.18 -35 4 C-32.97617187 3.79503906 -30.95234375 3.59007812 -28.8671875 3.37890625 C-26.89126202 3.17713921 -24.91533794 2.97535827 -22.93945312 2.77319336 C-21.57396316 2.63383458 -20.20840403 2.4951517 -18.84277344 2.35717773 C-16.87156087 2.15789822 -14.90062102 1.95592694 -12.9296875 1.75390625 C-11.74616699 1.63345947 -10.56264648 1.5130127 -9.34326172 1.38891602 C-5.99088908 1.04668204 -5.99088908 1.04668204 -2.69189453 0.32788086 C-1.80356934 0.21968018 -0.91524414 0.11147949 0 0 Z " fill="#02A8DD" transform="translate(296,37)"/>
<path d="M0 0 C13.86 0 27.72 0 42 0 C41.67 6.93 41.34 13.86 41 21 C27.14 21 13.28 21 -1 21 C-0.67 14.07 -0.34 7.14 0 0 Z " fill="#03A7DD" transform="translate(119,303)"/>
<path d="M0 0 C13.86 0 27.72 0 42 0 C42.495 10.395 42.495 10.395 43 21 C29.14 21 15.28 21 1 21 C0.67 14.07 0.34 7.14 0 0 Z " fill="#03A8DD" transform="translate(351,303)"/>
</svg>
