<?xml version="1.0" encoding="UTF-8"?>
<svg version="1.1" xmlns="http://www.w3.org/2000/svg" width="512" height="512">
<path d="M0 0 C0.92108649 0.00086648 1.84217299 0.00173296 2.79117119 0.0026257 C4.24710598 -0.00183098 4.24710598 -0.00183098 5.73245358 -0.0063777 C9.01140355 -0.01510583 12.29031719 -0.0165764 15.56927788 -0.01806521 C17.9093564 -0.02269046 20.24943417 -0.02771472 22.58951104 -0.03311038 C28.96548269 -0.04626418 35.34144379 -0.05268506 41.7174269 -0.05712104 C45.69598038 -0.0600468 49.67453095 -0.06415063 53.65308297 -0.06862521 C64.66086658 -0.08082042 75.66864823 -0.09111917 86.67643845 -0.0945003 C87.38144012 -0.09471987 88.08644179 -0.09493944 88.81280715 -0.09516566 C89.51953029 -0.09538393 90.22625344 -0.09560221 90.95439243 -0.0958271 C92.38656779 -0.09627057 93.81874315 -0.09671714 95.25091851 -0.09716678 C95.96133239 -0.09738821 96.67174627 -0.09760964 97.40368785 -0.09783778 C108.91851042 -0.10178694 120.43326975 -0.11924342 131.94806789 -0.1425263 C143.76013619 -0.16621816 155.57217273 -0.17870117 167.38426518 -0.17986822 C174.0203576 -0.18078622 180.65637718 -0.18688615 187.29244912 -0.20468783 C193.53205722 -0.22109963 199.77150853 -0.22335769 206.01113045 -0.21454883 C208.30615703 -0.21377476 210.60119181 -0.21816943 212.89619744 -0.22800708 C216.01974448 -0.24061504 219.14272674 -0.23491076 222.26626885 -0.22442508 C223.1828939 -0.23248148 224.09951895 -0.24053789 225.04392052 -0.24883842 C226.29552741 -0.23895366 226.29552741 -0.23895366 227.57241929 -0.2288692 C228.6543787 -0.22976483 228.6543787 -0.22976483 229.75819588 -0.23067856 C232.24462326 0.25906524 233.10627639 1.17056637 234.65570366 3.1430676 C235.81817086 6.63046919 236.12644814 10.01013636 236.46870911 13.64541364 C236.54445099 14.42005314 236.62019288 15.19469265 236.69822997 15.99280608 C236.95321019 18.60961611 237.20312842 21.2268853 237.45309746 23.84417844 C237.63586784 25.73096608 237.81894309 27.6177242 238.00229836 29.50445509 C238.50684373 34.70577757 239.00694266 39.90751956 239.50631988 45.10934043 C240.04502723 50.71298773 240.58776152 56.3162452 241.12994683 61.91955686 C242.31543241 74.17942082 243.49565096 86.43978847 244.67490923 98.70025277 C245.41090286 106.35174957 246.14808169 114.00313187 246.88552773 121.6544888 C248.92606396 142.82748408 250.96557865 164.00057675 253.00031006 185.17413068 C253.06541512 185.8516061 253.13052017 186.52908152 253.19759811 187.2270865 C253.52758966 190.66095725 253.85757198 194.09482889 254.18755402 197.52870056 C254.32000362 198.90699218 254.45245324 200.2852838 254.58490288 201.66357541 C254.65052383 202.34644939 254.71614479 203.02932337 254.78375425 203.73289051 C256.84568229 225.18952376 258.91406323 246.64552686 260.98724663 268.10107541 C263.31551759 292.19656376 265.63815424 316.29258423 267.95301247 340.38936567 C269.1791537 353.15160495 270.40791301 365.91357999 271.64337838 378.67492032 C272.69524936 389.54030395 273.74143978 400.40621566 274.78018905 411.27286193 C275.31054952 416.81934531 275.84360533 422.36553515 276.38384926 427.91106534 C276.87815607 432.98574187 277.36483845 438.06108929 277.84540664 443.13708475 C278.02079144 444.97520588 278.19898937 446.81306117 278.38025333 448.65061185 C278.62594725 451.14553351 278.86143087 453.64121788 279.0943805 456.137357 C279.20377905 457.21067236 279.20377905 457.21067236 279.31538767 458.30567086 C279.76277859 463.2656201 280.24875191 468.7710588 277.37074578 473.05633759 C275.18082209 474.44397452 273.80310456 474.52278486 271.21502984 474.53074765 C269.85225411 474.5456046 269.85225411 474.5456046 268.46194756 474.56076169 C267.46756676 474.55626004 266.47318596 474.55175839 265.44867241 474.54712033 C263.87516518 474.55741521 263.87516518 474.55741521 262.26986992 474.56791806 C258.79417775 474.58625509 255.31893394 474.58233894 251.84320366 474.57666135 C249.43329005 474.58121953 247.02337774 474.586524 244.61346734 474.59254575 C239.55945858 474.60149023 234.50560773 474.59903809 229.4516021 474.58911252 C222.96453484 474.57761604 216.47801135 474.59783856 209.99101555 474.62702966 C205.01370049 474.64534568 200.03651686 474.64510845 195.05917656 474.63939214 C192.66689585 474.63923839 190.27460652 474.64532673 187.88235772 474.65768361 C184.54213283 474.6725062 181.20292718 474.66198051 177.86273491 474.64477658 C176.86835412 474.65444455 175.87397332 474.66411252 174.84945977 474.67407346 C173.94094262 474.66423932 173.03242547 474.65440518 172.09637749 474.64427304 C171.30661019 474.64406376 170.51684289 474.64385448 169.70314324 474.64363885 C167.65570366 474.1430676 167.65570366 474.1430676 165.9728719 472.56804395 C164.26690127 469.42726185 163.6962897 466.32849051 163.14033806 462.84224057 C162.9499005 461.73505888 162.9499005 461.73505888 162.75561571 460.60550988 C162.33207442 458.12663948 161.92475612 455.64537678 161.51727593 453.16381955 C161.2151566 451.37534969 160.91204021 449.58704802 160.60800564 447.79890275 C159.95379603 443.93796312 159.3067999 440.07590698 158.66530526 436.2128346 C157.6574675 430.14389916 156.6336585 424.07772635 155.60782158 418.01181149 C153.54731042 405.81098563 151.50761768 393.60671597 149.47022998 381.40201092 C148.44393715 375.25644048 147.41575936 369.1111854 146.38777459 362.9658978 C144.44613419 351.35726344 142.50588792 339.7483966 140.56628293 328.139422 C137.09881455 307.38594217 133.62949009 286.6327727 130.15879458 265.87983233 C128.94771898 258.6378507 127.73743241 251.39573784 126.52783912 244.15350848 C125.77244274 239.63146366 125.01648049 235.10951357 124.2603581 230.5875901 C123.89914672 228.4268148 123.53814648 226.26600419 123.17736816 224.10515654 C121.410035 213.52153929 119.63036302 202.94065826 117.78537285 192.37027097 C117.6410118 191.54055565 117.49665074 190.71084033 117.34791511 189.85598212 C116.68781351 186.06332148 116.02318254 182.27160097 115.34809315 178.48157907 C115.12234891 177.19036299 114.89660468 175.89914691 114.6640197 174.56880307 C114.46772249 173.46276888 114.27142527 172.35673469 114.06917965 171.21718431 C113.65692459 168.15214499 113.5807968 165.23158103 113.65570366 162.1430676 C112.99570366 162.1430676 112.33570366 162.1430676 111.65570366 162.1430676 C111.61578301 162.80869497 111.57586236 163.47432235 111.53473198 164.16012025 C110.88458298 173.35519564 109.41562279 182.36004203 107.87445366 191.43579221 C107.58589485 193.15715214 107.29776992 194.87858485 107.0100404 196.60008359 C106.22811659 201.27081956 105.44012655 205.9405139 104.65106332 210.61004829 C103.81193485 215.58248936 102.9785672 220.55589602 102.14451897 225.52919126 C100.54026717 235.08959366 98.93088983 244.64912578 97.31945866 254.20832044 C95.47411779 265.15565903 93.63283586 276.10367888 91.79191589 287.05176163 C90.87607617 292.49828259 89.9601006 297.9447807 89.0440551 303.39126706 C88.86370463 304.46357402 88.68335415 305.53588099 88.49753851 306.6406821 C87.22882062 314.18332995 85.95892376 321.72577878 84.68861687 329.26815915 C80.93205055 351.57531135 77.19046864 373.88478479 73.48898232 396.20114446 C72.30289438 403.34848121 71.1125518 410.49511074 69.92231858 417.6417582 C68.88363249 423.8819727 67.85206223 430.12330935 66.82570469 436.36556268 C66.21143474 440.09009883 65.59000662 443.81341143 64.96629059 447.53637624 C64.69009323 449.19420051 64.41692994 450.85253402 64.14725602 452.51143193 C63.78931513 454.71170642 63.42057878 456.909903 63.04901421 459.10791135 C62.85019143 460.31052609 62.65136864 461.51314084 62.44652092 462.75219846 C60.439086 471.35968526 60.439086 471.35968526 57.65570366 474.1430676 C56.25858 474.24500307 54.85636636 474.27824556 53.45553887 474.28350949 C52.09688714 474.29207471 52.09688714 474.29207471 50.71078789 474.30081296 C49.20843087 474.30248975 49.20843087 474.30248975 47.6757232 474.30420041 C46.10265404 474.31164777 46.10265404 474.31164777 44.49780571 474.31924558 C41.01136931 474.33391011 37.5249784 474.34067624 34.03851616 474.3461926 C31.62574555 474.3519404 29.21297496 474.35769818 26.8002044 474.36346555 C21.73429442 474.37398769 16.66840038 474.37982244 11.60248101 474.38330197 C5.09977574 474.38879 -1.40272047 474.41281971 -7.9053601 474.44127393 C-12.89122852 474.4598645 -17.87704623 474.46510399 -22.86294639 474.46663785 C-25.26081315 474.46967288 -27.65867883 474.47772981 -30.05651176 474.49082303 C-33.40634686 474.50780902 -36.75566655 474.50602142 -40.1055268 474.49951291 C-41.10304969 474.50872769 -42.10057258 474.51794248 -43.12832344 474.52743649 C-44.49543464 474.51908277 -44.49543464 474.51908277 -45.89016426 474.51056027 C-47.07871167 474.51276011 -47.07871167 474.51276011 -48.29127014 474.5150044 C-50.34429634 474.1430676 -50.34429634 474.1430676 -52.06017959 473.05759931 C-55.33196853 468.17958203 -54.353828 461.72817201 -53.78855979 456.14294362 C-53.71632399 455.36308955 -53.64408818 454.58323547 -53.56966341 453.77974945 C-53.32572094 451.1681882 -53.0700119 448.55791634 -52.81432807 445.94748044 C-52.63513907 444.05591003 -52.45666961 442.16427134 -52.27885783 440.27257097 C-51.78819781 435.07538586 -51.28718271 429.87924323 -50.78444755 424.68321419 C-50.24402474 419.07911725 -49.71310706 413.47411877 -49.18093574 407.86923337 C-48.13689181 396.89019843 -47.08375359 385.91205409 -46.02719536 374.93421708 C-45.1688175 366.01448318 -44.31335869 357.094474 -43.45998085 348.17426038 C-43.33859563 346.90553697 -43.21721041 345.63681357 -43.09214686 344.329644 C-42.8455726 341.75241758 -42.59900026 339.17519097 -42.35242984 336.59796418 C-40.69635446 319.2915104 -39.03706885 301.98536844 -37.3712014 284.67985463 C-37.30606518 284.00319284 -37.24092897 283.32653104 -37.17381894 282.62936434 C-36.84367024 279.19975783 -36.51348849 275.7701545 -36.18329361 272.34055243 C-36.11771552 271.65941843 -36.05213742 270.97828443 -35.98457212 270.27651001 C-35.85195688 268.8990932 -35.71934008 267.52167655 -35.58672171 266.14426004 C-33.52232667 244.70196765 -31.46898632 223.25864189 -29.42437446 201.81445432 C-27.12743316 177.72401045 -24.82217215 153.63438903 -22.50468218 129.54591119 C-21.27766504 116.79030745 -20.05434641 104.03437461 -18.84067237 91.27749372 C-17.80761505 80.42013678 -16.76589211 69.56365463 -15.71284285 58.70821773 C-15.17555094 53.16699886 -14.64232943 47.62546646 -14.11988914 42.0828259 C-13.64189424 37.01283932 -13.1524704 31.9440935 -12.6537635 26.87610354 C-12.47502396 25.03883564 -12.30053351 23.20114858 -12.13063696 21.36304186 C-11.89969456 18.87125472 -11.65352699 16.38143262 -11.40339744 13.89150929 C-11.30890343 12.81202798 -11.30890343 12.81202798 -11.21250045 11.71073896 C-10.32964534 3.31986586 -8.26823185 0.03830185 0 0 Z M4.65570366 14.1430676 C3.99570366 19.0930676 3.33570366 24.0430676 2.65570366 29.1430676 C75.25570366 29.1430676 147.85570366 29.1430676 222.65570366 29.1430676 C221.99570366 24.1930676 221.33570366 19.2430676 220.65570366 14.1430676 C149.37570366 14.1430676 78.09570366 14.1430676 4.65570366 14.1430676 Z M1.65570366 44.1430676 C-0.11627969 57.19383889 -0.11627969 57.19383889 -0.34429634 70.1430676 C8.73174854 70.72861888 15.78910376 68.78440181 22.90570366 62.9555676 C28.82899472 57.35667585 32.30869659 52.22511005 33.65570366 44.1430676 C23.09570366 44.1430676 12.53570366 44.1430676 1.65570366 44.1430676 Z M48.65570366 44.1430676 C47.66570366 48.1030676 46.67570366 52.0630676 45.65570366 56.1430676 C40.79553752 67.62956105 32.35402158 76.09981486 21.01117241 81.21728635 C15.28694739 83.46710614 10.03989654 84.24352698 3.89398491 84.6899426 C2.72520806 84.77598752 1.5564312 84.86203244 0.35223687 84.95068479 C-0.53761909 85.01417111 -1.42747505 85.07765744 -2.34429634 85.1430676 C-4.60392024 104.81017887 -6.59227079 124.49646859 -8.48241186 144.20178962 C-8.88378419 148.38154794 -9.28748408 152.56108163 -9.69085395 156.74064755 C-10.47619851 164.88194114 -11.25942453 173.02343713 -12.0418243 181.16501419 C-12.67751244 187.7795715 -13.31396183 194.39405515 -13.95093429 201.00848889 C-14.04211474 201.95533596 -14.13329519 202.90218302 -14.22723869 203.87772242 C-14.41253383 205.80186346 -14.59783024 207.72600439 -14.78312788 209.65014519 C-16.51190449 227.60286735 -18.23819849 245.55582756 -19.96365634 263.50886895 C-21.44365925 278.90732022 -22.92599956 294.30554509 -24.40997016 309.70361447 C-26.137897 327.63303936 -27.8642616 345.56261361 -29.58821982 363.49242055 C-29.7718459 365.40214499 -29.9554745 367.31186919 -30.13910568 369.22159314 C-30.22943635 370.16101474 -30.31976703 371.10043633 -30.412835 372.06832524 C-31.04915934 378.68479692 -31.68661774 385.30115877 -32.32452667 391.91747785 C-33.10033795 399.96436072 -33.87447549 408.01140247 -34.64643904 416.05865543 C-35.04018648 420.16276931 -35.43470321 424.26680542 -35.8312825 428.37064672 C-36.19404449 432.12476128 -36.55461457 435.87907961 -36.91342077 439.63357426 C-37.10554598 441.63792243 -37.30001926 443.64204509 -37.49456984 445.64615929 C-37.6076718 446.83426835 -37.72077375 448.0223774 -37.83730304 449.24648976 C-37.98523297 450.7846168 -37.98523297 450.7846168 -38.13615137 452.35381711 C-38.32943805 454.94395888 -38.34429634 457.54572392 -38.34429634 460.1430676 C-10.29429634 460.1430676 17.75570366 460.1430676 46.65570366 460.1430676 C48.26283717 453.82468234 48.26283717 453.82468234 49.51582921 447.48732972 C49.65686343 446.65195524 49.79789766 445.81658076 49.94320565 444.95589191 C50.090568 444.06327527 50.23793035 443.17065864 50.38975823 442.25099301 C50.55239279 441.28198133 50.71502735 440.31296965 50.88259023 439.31459397 C51.42484469 436.07896643 51.96250704 432.84259311 52.50018609 429.60620236 C52.88965294 427.27650496 53.27940554 424.9468553 53.66942132 422.61724973 C54.62039134 416.93262508 55.56840546 411.24751314 56.51516768 405.56218631 C57.63270849 398.85244414 58.75407608 392.14334313 59.87566236 385.43427622 C61.89522774 373.35316233 63.91200551 361.27158485 65.9269439 349.18969846 C67.84672408 337.67844386 69.76741113 326.16734143 71.68963921 314.65649533 C71.80621521 313.95837594 71.92279122 313.26025654 72.04289982 312.54098202 C73.33047652 304.83036876 74.61847309 297.11982583 75.90708745 289.40938592 C76.37249262 286.62440553 76.83786203 283.83941917 77.30321038 281.05442929 C77.41797397 280.36763238 77.53273755 279.68083548 77.65097883 278.97322654 C79.26565888 269.30925434 80.87484136 259.64437994 82.48060607 249.97892269 C83.49117206 243.89742966 84.50338766 237.81621134 85.51629937 231.73510861 C85.62579687 231.07758814 85.73529437 230.42006767 85.84810998 229.74262233 C88.74219595 212.36879921 91.70672422 195.00946786 94.77630544 177.66579354 C95.85128802 171.57847462 96.91273193 165.4887746 97.97495919 159.39921862 C98.77483555 154.82468365 99.58499694 150.25257902 100.42383683 145.68501592 C103.72722754 127.68048397 106.17946998 110.03958531 106.57025445 91.7133801 C106.58649794 90.95279168 106.60274143 90.19220326 106.61947715 89.40856671 C106.88529196 74.30294951 106.15365283 59.24752558 105.65570366 44.1430676 C86.84570366 44.1430676 68.03570366 44.1430676 48.65570366 44.1430676 Z M119.65570366 44.1430676 C118.40865933 66.50315484 118.40865933 66.50315484 118.3422271 88.84961057 C118.36605446 89.70761061 118.38988182 90.56561066 118.41443121 91.44961071 C119.3138739 119.0217451 124.22954179 146.24059088 128.78851616 173.39697385 C128.96219824 174.43261367 128.96219824 174.43261367 129.13938904 175.4891755 C132.16279605 193.50191767 135.29365032 211.49547695 138.46093166 229.48340476 C140.26514845 239.73522289 142.04275041 249.99137511 143.8007232 260.2512219 C143.92435236 260.97270074 144.04798152 261.69417958 144.17535701 262.43752141 C144.79778843 266.07084864 145.41973461 269.70425871 146.04141963 273.33771372 C147.27259983 280.53279011 148.50672296 287.72736128 149.74206841 294.9217236 C149.86318803 295.62713026 149.98430766 296.33253692 150.10909757 297.05931954 C151.91282859 307.56098103 153.73056899 318.0601535 155.55908501 328.55752683 C155.67702106 329.23459133 155.79495711 329.91165584 155.91646698 330.60923745 C156.50514508 333.98834098 157.0940427 337.36740622 157.68303931 340.74645424 C161.23110747 361.10179713 164.74895613 381.46148935 168.17425835 401.83789182 C168.34445512 402.85008357 168.51465189 403.86227533 168.69000614 404.90513957 C170.24620813 414.16509281 171.79597518 423.42610346 173.33650696 432.6886766 C173.86702966 435.87566025 174.39979211 439.06226699 174.93296397 442.24880838 C175.28839227 444.37944649 175.64017157 446.51066454 175.9917289 448.64194417 C176.19906781 449.88162261 176.40640671 451.12130105 176.62002861 452.3985455 C176.79752081 453.46913174 176.97501301 454.53971797 177.15788376 455.64274621 C177.5384554 458.12852954 177.5384554 458.12852954 178.65570366 460.1430676 C206.70570366 460.1430676 234.75570366 460.1430676 263.65570366 460.1430676 C262.05303155 439.07388322 262.05303155 439.07388322 260.16911614 418.03521848 C260.03177686 416.60226854 259.89465361 415.16929788 259.75772065 413.73630905 C259.39011056 409.89568295 259.01951485 406.05535061 258.64831281 402.21507025 C258.24501745 398.0369512 257.84463623 393.85855264 257.44385064 389.68019223 C256.66246958 381.53873155 255.87846089 373.39752607 255.09346765 365.25641295 C254.45569322 358.64151693 253.81893604 352.02652368 253.18288147 345.41146207 C253.09185426 344.46476824 253.00082704 343.51807441 252.90704142 342.54269288 C252.7220665 340.61887642 252.53709431 338.69505969 252.35212482 336.77124271 C250.62568745 318.81617577 248.8962852 300.8613954 247.16579599 282.90671858 C245.68181181 267.50898615 244.20022368 252.11102472 242.72040093 236.71289182 C240.99741712 218.78459462 239.27309643 200.8564269 237.54653901 182.92847347 C237.36259484 181.01843504 237.17865186 179.10839649 236.99471009 177.19835782 C236.90422514 176.25878195 236.81374019 175.31920608 236.72051327 174.35115822 C236.08351887 167.735828 235.44746659 161.12040758 234.81176865 154.50495267 C234.03835161 146.4566407 233.26342851 138.40847542 232.48657554 130.36049435 C232.09046084 126.25648039 231.6950152 122.15240491 231.30138123 118.04815221 C230.94114586 114.29234159 230.57897879 110.53672246 230.2152654 106.78124711 C230.02184028 104.77887206 229.83047096 102.77629875 229.63917357 100.77371931 C229.52346386 99.58300251 229.40775416 98.3922857 229.2885381 97.16548657 C229.14036465 95.62711601 229.14036465 95.62711601 228.98919779 94.05766726 C228.64662982 91.06376595 228.17653185 88.11070924 227.65570366 85.1430676 C226.85648491 85.11728635 226.05726616 85.0915051 225.23382866 85.0649426 C211.25054877 84.34280138 198.28571713 80.36588474 188.40570366 70.0180676 C181.8257355 62.10612207 178.87903815 54.14807277 176.65570366 44.1430676 C157.84570366 44.1430676 139.03570366 44.1430676 119.65570366 44.1430676 Z M191.65570366 44.1430676 C193.1318957 53.00021981 197.5395659 58.96996905 204.45648491 64.6352551 C211.25003803 69.29300199 217.5271913 70.66748775 225.65570366 70.1430676 C226.0378026 61.31233673 224.84014046 52.87828897 223.65570366 44.1430676 C213.09570366 44.1430676 202.53570366 44.1430676 191.65570366 44.1430676 Z " fill="#000000" transform="translate(143.344296336174,18.856932401657104)"/>
</svg>
