<?xml version="1.0" encoding="UTF-8"?>
<svg version="1.1" xmlns="http://www.w3.org/2000/svg" width="512" height="512">
<path d="M0 0 C3.83386608 0.89098599 6.62001725 3.08533858 9.67201233 5.47572327 C11.07019856 6.49706424 12.47263754 7.51260609 13.87904358 8.52259827 C14.57723206 9.02597717 15.27542053 9.52935608 15.99476624 10.04798889 C49.01014471 33.01657482 93.79095825 37.21580429 132.39515686 30.3316803 C148.59567912 27.166813 163.63452773 21.45740907 178.04701233 13.47572327 C179.15947327 12.86470764 180.2719342 12.25369202 181.41810608 11.62416077 C186.65167989 8.65781556 191.42826054 5.65329489 195.83998108 1.54212952 C199.6002282 -0.27476865 202.97979527 -0.47176399 207.04701233 0.47572327 C210.66777709 2.97447457 213.46653936 6.13240465 216.41029358 9.38197327 C218.20354252 11.25993162 219.99717518 13.13752363 221.79115295 15.01478577 C224.57224528 17.9715896 227.33320445 20.94683285 230.08827209 23.9278717 C241.23320045 35.91296083 250.51448819 44.90784845 266.35380554 49.64057922 C271.42150218 51.21203548 276.35850087 53.15493752 281.32435608 55.01869202 C283.4232195 55.79220349 285.52283235 56.56368446 287.6231842 57.33314514 C288.66788879 57.71656067 289.71259338 58.0999762 290.78895569 58.49501038 C292.9447519 59.28311374 295.10201871 60.06720445 297.26063538 60.84754944 C300.43248012 61.9961766 303.59750254 63.16211234 306.76185608 64.33119202 C307.72324997 64.67401718 308.68464386 65.01684235 309.6751709 65.37005615 C310.5712355 65.7042305 311.46730011 66.03840485 312.39051819 66.38270569 C313.56244972 66.80950874 313.56244972 66.80950874 314.75805664 67.24493408 C317.88662449 68.92718922 319.77102368 70.73492623 322.04701233 73.47572327 C322.67260748 76.88134581 322.67260748 76.88134581 322.67342472 80.87334538 C322.68039233 81.61235876 322.68735994 82.35137215 322.69453868 83.11277989 C322.71182847 85.59716543 322.69339473 88.08000087 322.67520142 90.56436157 C322.68024493 92.36012145 322.68747225 94.15587631 322.69669956 95.95161957 C322.71567632 100.89245339 322.70335757 105.83279411 322.68597662 110.77361572 C322.67263466 116.09951606 322.68802826 121.42534272 322.69979858 126.75123596 C322.71820286 137.18681264 322.7096444 147.6222024 322.69171036 158.0577733 C322.67770036 166.53637178 322.67378811 175.01491942 322.67715263 183.49352837 C322.67763008 184.69897816 322.67810752 185.90442796 322.67859943 187.14640654 C322.67962573 189.59503096 322.68068109 192.04365537 322.68176519 194.49227976 C322.6903378 216.15663889 322.67363862 237.82090762 322.64393616 259.48524475 C322.61509385 280.52239275 322.6080162 301.55941052 322.62342834 322.59657288 C322.64017655 345.48886383 322.64423909 368.38109291 322.62671798 391.27338547 C322.62487354 393.71283495 322.62303881 396.15228444 322.62121391 398.59173393 C322.62030182 399.79208411 322.61938973 400.99243429 322.61845 402.22915872 C322.61283629 410.7012507 322.61615952 419.17331255 322.62275887 427.64540291 C322.63047776 437.96470101 322.62379153 448.28387075 322.59858382 458.60314292 C322.58605563 463.87145557 322.5799824 469.13956804 322.59112549 474.40788841 C322.60112405 479.22593238 322.59280236 484.04357606 322.56954431 488.86157107 C322.56436044 490.60911915 322.56599073 492.35670274 322.57493896 494.1042356 C322.58605576 496.47129015 322.57278913 498.83697262 322.5531702 501.2039423 C322.55197872 502.5211398 322.55078724 503.83833731 322.54955965 505.19544989 C322.04701233 508.47572327 322.04701233 508.47572327 320.47101444 510.89874929 C317.24412185 512.99805672 314.48402347 513.02983196 310.75682068 512.97908783 C310.01727276 512.98490159 309.27772484 512.99071536 308.51576638 512.99670529 C306.02373864 513.01136836 303.53268615 512.99739133 301.04066467 512.98365784 C299.24164512 512.98826427 297.44262932 512.99461545 295.64362144 513.00256681 C290.68919331 513.01931864 285.73507199 513.01098726 280.78064251 512.99862194 C275.44177827 512.98959765 270.10296801 513.00352812 264.76411438 513.01454163 C254.30102258 513.03235951 243.83804533 513.02847232 233.37494898 513.01689106 C224.87392388 513.00786986 216.37293097 513.00662704 207.87190247 513.01098633 C206.66354182 513.01159926 205.45518117 513.01221219 204.21020353 513.0128437 C201.75570058 513.01412256 199.30119764 513.01541941 196.84669471 513.01673406 C173.81259906 513.02814944 150.77856702 513.01501114 127.7444818 512.9935326 C107.96573616 512.97566077 88.1870844 512.9787646 68.40834045 512.99720764 C45.45856237 513.01859744 22.50884008 513.02705072 -0.44094658 513.01475859 C-2.88659031 513.01348434 -5.33223406 513.01222686 -7.77787781 513.01098633 C-8.98128708 513.01036923 -10.18469636 513.00975212 -11.42457259 513.00911632 C-19.91869735 513.00565775 -28.41278683 513.01150268 -36.90690613 513.02090454 C-47.25367053 513.03210491 -57.6003135 513.02912585 -67.94706392 513.00778157 C-73.22955035 512.99724471 -78.51183407 512.99319409 -83.79431915 513.00637817 C-88.62534868 513.01825345 -93.45598664 513.01182028 -98.28698039 512.99046797 C-100.03927177 512.98598118 -101.79159588 512.98831438 -103.5438664 512.99797112 C-105.91732 513.01005289 -108.28941461 512.99774555 -110.66279602 512.97908783 C-111.35063919 512.98845249 -112.03848236 512.99781716 -112.74716926 513.0074656 C-115.86647275 512.95811302 -117.74394119 512.61172185 -120.37698978 510.89874929 C-122.55419138 507.55139955 -122.4555418 505.1879216 -122.45914555 501.2039423 C-122.46525891 500.46638235 -122.47137227 499.7288224 -122.47767088 498.96891215 C-122.49334065 496.48364398 -122.4803772 493.999342 -122.46765137 491.5140686 C-122.47297357 489.71988586 -122.48003737 487.92570758 -122.48869842 486.13153785 C-122.50739595 481.19044856 -122.50099638 476.24965752 -122.49054539 471.30855548 C-122.48357348 465.9839818 -122.49953601 460.65947065 -122.51254272 455.33491516 C-122.5342218 444.89956725 -122.53404581 434.46432823 -122.52591718 424.02896518 C-122.51962568 415.54987737 -122.52074639 407.0708214 -122.52718925 398.59173393 C-122.52809091 397.38643737 -122.52899256 396.1811408 -122.52992154 394.9393201 C-122.53177268 392.49101988 -122.53363524 390.04271967 -122.5355091 387.59441947 C-122.55210122 364.61800058 -122.5433564 341.64164304 -122.52652352 318.66522782 C-122.51182567 297.62996239 -122.52645373 276.59483977 -122.55529369 255.55959273 C-122.58466401 233.9773195 -122.59566685 212.39511224 -122.58611149 190.8128199 C-122.5850889 188.37305607 -122.58409429 185.93329222 -122.58312798 183.49352837 C-122.58265159 182.29302391 -122.5821752 181.09251946 -122.58168437 179.85563608 C-122.57951709 171.38451168 -122.58934099 162.91344953 -122.603899 154.44233894 C-122.62138716 144.12193555 -122.62135561 133.8017143 -122.59854735 123.48131818 C-122.5873731 118.21284112 -122.58431453 112.94468537 -122.60284805 107.67622185 C-122.61958419 102.8567875 -122.6133954 98.03795642 -122.58863126 93.21856164 C-122.5837249 91.47163475 -122.58732601 89.72465984 -122.6001187 87.9777729 C-122.61621944 85.60889607 -122.60173353 83.24212587 -122.57940006 80.87334538 C-122.57913037 79.55598552 -122.57886068 78.23862566 -122.57858282 76.88134581 C-121.79227692 72.60084413 -120.30078381 71.16692705 -116.95298767 68.47572327 C-113.89993286 66.97245789 -113.89993286 66.97245789 -110.45372009 65.72425842 C-109.82210464 65.49093307 -109.1904892 65.25760773 -108.53973389 65.01721191 C-107.17734961 64.51578528 -105.81265199 64.02060767 -104.44592857 63.53113174 C-102.27477597 62.75271034 -100.11097554 61.95634374 -97.94818115 61.15501404 C-92.57476432 59.16784633 -87.19171812 57.20741155 -81.80595398 55.25398254 C-77.25167921 53.60195693 -72.70305915 51.93593583 -68.16132545 50.24972153 C-66.04363504 49.46984427 -63.9192181 48.71085508 -61.79385376 47.95219421 C-54.27954652 45.20656659 -48.46789658 42.3320936 -42.95298767 36.47572327 C-41.96695305 35.4858139 -41.96695305 35.4858139 -40.96099854 34.47590637 C-38.81993233 32.31272032 -36.71581813 30.11761007 -34.61314392 27.91712952 C-33.04080539 26.29809635 -31.46719974 24.68029294 -29.8924408 23.06361389 C-27.44081509 20.54399013 -24.99691585 18.01870828 -22.573349 15.47206116 C-20.21156923 12.99510744 -17.82196323 10.54812325 -15.42564392 8.10462952 C-14.70973587 7.33913284 -13.99382782 6.57363617 -13.25622559 5.78494263 C-8.96724904 1.47182614 -6.17645421 -0.38213357 0 0 Z M-13.44248962 32.31825256 C-14.34958679 33.21971008 -15.25668396 34.1211676 -16.19126892 35.04994202 C-16.91880623 35.77030388 -16.91880623 35.77030388 -17.66104126 36.50521851 C-18.68321801 37.52399257 -19.69910645 38.54910917 -20.70909119 39.57997131 C-22.25996704 41.15760738 -23.83567688 42.70682156 -25.4158783 44.25502014 C-26.40511567 45.24756154 -27.39280088 46.24165286 -28.37876892 47.23744202 C-29.7309552 48.59808777 -29.7309552 48.59808777 -31.11045837 49.98622131 C-33.15873956 52.22577193 -33.15873956 52.22577193 -32.91929626 54.46229553 C-31.7019873 56.99871469 -30.43748781 59.47062451 -29.06626892 61.92884827 C-28.4648407 63.01053284 -27.86341248 64.09221741 -27.24375916 65.2066803 C-26.58458431 66.37983456 -25.9251538 67.55284519 -25.26548767 68.72572327 C-24.58443839 69.94423167 -23.90353215 71.16282003 -23.22276306 72.38148499 C-18.30354112 81.16597999 -13.25692731 89.87299171 -8.15538025 98.5528717 C-3.99562304 105.64380531 0.04976797 112.79206744 4.04701233 119.97572327 C10.87420734 132.24489936 17.92623865 144.37498728 25.04701233 156.47572327 C28.08542205 154.72951821 30.77634522 153.00035567 33.31654358 150.58509827 C33.89114319 150.04401428 34.4657428 149.5029303 35.05775452 148.94544983 C35.94962463 148.09418518 35.94962463 148.09418518 36.85951233 147.22572327 C38.11003274 146.04780953 39.36132868 144.87071855 40.61341858 143.69447327 C41.20912659 143.13373108 41.80483459 142.57298889 42.41859436 141.99525452 C44.93317318 139.64881695 47.52209404 137.39466983 50.12513733 135.14759827 C52.45806307 133.11814254 54.75212478 131.04807626 57.04701233 128.97572327 C60.65969137 125.71550072 64.30190224 122.49428762 67.97279358 119.29994202 C71.23253182 116.43309124 74.44112017 113.50983843 77.65248108 110.58900452 C80.05689842 108.46699835 82.5271233 106.45851339 85.04701233 104.47572327 C83.52319332 100.50131813 81.14521412 98.79920058 77.73451233 96.35072327 C76.64271688 95.55604208 75.55159375 94.76043655 74.46107483 93.96400452 C73.89678772 93.55488831 73.33250061 93.14577209 72.75111389 92.72425842 C70.00092203 90.70928977 67.30584359 88.62441188 64.60951233 86.53822327 C63.51711587 85.69570862 62.42466767 84.85326107 61.33216858 84.01087952 C60.7896344 83.59209534 60.24710022 83.17331116 59.68812561 82.74183655 C56.97679103 80.6500512 54.2617278 78.5631177 51.54701233 76.47572327 C50.46366084 75.64241353 49.38032751 74.80908019 48.29701233 73.97572327 C47.76076233 73.56322327 47.22451233 73.15072327 46.67201233 72.72572327 C15.79701233 48.97572327 15.79701233 48.97572327 14.16981506 47.723526 C13.09445989 46.89666572 12.01845806 46.07064571 10.94178772 45.24549866 C8.10530694 43.06984519 5.28399642 40.87749296 2.48060608 38.65931702 C1.60275452 37.96999084 1.60275452 37.96999084 0.70716858 37.26673889 C-0.4129316 36.38666018 -1.52906315 35.50149869 -2.64048767 34.61048889 C-7.80248579 30.26465441 -7.80248579 30.26465441 -13.44248962 32.31825256 Z M203.42201233 34.16322327 C198.60195099 38.2181955 193.68692073 42.10193767 188.67201233 45.91322327 C187.94127502 46.46945374 187.21053772 47.0256842 186.45765686 47.59877014 C185.00434835 48.70463953 183.55074052 49.81011569 182.09681702 50.91517639 C179.15566847 53.15431664 176.22534978 55.40736884 173.29701233 57.66322327 C172.26060608 58.46115295 171.22419983 59.25908264 170.15638733 60.08119202 C168.6172467 61.26648499 168.6172467 61.26648499 167.04701233 62.47572327 C164.88056582 64.14267619 162.71378736 65.8091974 160.54701233 67.47572327 C159.46367295 68.30904874 158.38033961 69.14238206 157.29701233 69.97572327 C143.213679 80.8090566 129.13034566 91.64238993 115.04701233 102.47572327 C116.55753256 106.1524291 118.69587383 108.19446789 121.67201233 110.78822327 C123.02166077 111.97351624 123.02166077 111.97351624 124.39857483 113.18275452 C125.70955139 114.31777405 125.70955139 114.31777405 127.04701233 115.47572327 C128.38065504 116.64203627 129.71401609 117.80867146 131.04701233 118.97572327 C131.68638733 119.53259827 132.32576233 120.08947327 132.98451233 120.66322327 C136.2207631 123.50720122 139.41109901 126.40185027 142.60951233 129.28822327 C144.74118713 131.20126476 146.88720343 133.09459939 149.04701233 134.97572327 C152.07456 137.61261963 155.06638512 140.28588896 158.04701233 142.97572327 C158.88490295 143.72982483 159.72279358 144.48392639 160.58607483 145.26087952 C162.16627333 146.68305817 163.74456697 148.10735779 165.32044983 149.53431702 C166.01396545 150.15435608 166.70748108 150.77439514 167.42201233 151.41322327 C168.0278717 151.9584967 168.63373108 152.50377014 169.25794983 153.06556702 C171.10243631 154.51940898 172.93862132 155.45751271 175.04701233 156.47572327 C175.44791077 155.774151 175.8488092 155.07257874 176.26185608 154.3497467 C193.11732483 124.85267639 193.11732483 124.85267639 194.11943054 123.09899902 C195.10751351 121.36984621 196.09557349 119.64068026 197.08363342 117.91151428 C198.39892306 115.60983919 199.7143541 113.3082449 201.02992249 111.00672913 C204.08951506 105.65391871 207.14784079 100.30040019 210.20074463 94.94377136 C211.59801559 92.4923912 212.9962705 90.04157272 214.39445496 87.5907135 C215.40799217 85.81281673 216.41981675 84.03395314 217.43153381 82.25502014 C220.3352603 77.16175939 223.25781798 72.08793978 226.30873108 67.08119202 C227.02826965 65.894328 227.02826965 65.894328 227.76234436 64.68348694 C228.62848812 63.2640346 229.50497478 61.85081443 230.3941803 60.44569397 C232.44785293 57.25012184 232.44785293 57.25012184 232.92909241 53.5919342 C231.67611878 50.58590726 229.75520917 48.79455717 227.46107483 46.49134827 C226.5303717 45.55677795 225.59966858 44.62220764 224.64076233 43.65931702 C224.1534967 43.17833557 223.66623108 42.69735413 223.16419983 42.20179749 C221.67357831 40.72727234 220.19967167 39.23738777 218.72669983 37.74525452 C217.79341858 36.81584045 216.86013733 35.88642639 215.89857483 34.92884827 C214.61200989 33.64735901 214.61200989 33.64735901 213.29945374 32.33998108 C209.06037172 28.8314584 207.06233347 31.02443244 203.42201233 34.16322327 Z M35.04701233 40.47572327 C38.65543835 44.22552419 42.42997479 47.48682765 46.54701233 50.66322327 C47.15794739 51.13880676 47.76888245 51.61439026 48.39833069 52.10438538 C50.27808325 53.5656078 52.16185948 55.0214767 54.04701233 56.47572327 C54.61049377 56.91110413 55.17397522 57.34648499 55.75453186 57.7950592 C58.97736265 60.28390204 62.20631386 62.76467102 65.43812561 65.24183655 C68.14351036 67.31664907 70.84508472 69.39641199 73.54701233 71.47572327 C76.88949803 74.04768607 80.23271679 76.61867884 83.57826233 79.18666077 C84.15898499 79.63267639 84.73970764 80.07869202 85.33802795 80.53822327 C86.94910451 81.77553006 88.56054662 83.01236084 90.17201233 84.24916077 C93.04701233 86.47572327 93.04701233 86.47572327 95.60951233 88.82728577 C97.8919903 90.74613354 97.8919903 90.74613354 100.4513092 90.25428772 C103.20820081 89.42737582 104.78215175 88.45920594 107.01576233 86.66712952 C107.74513 86.08995178 108.47449768 85.51277405 109.22596741 84.91810608 C109.99191223 84.29774475 110.75785706 83.67738342 111.54701233 83.03822327 C113.16526126 81.752764 114.78375223 80.46760938 116.40248108 79.18275452 C117.19444885 78.54934143 117.98641663 77.91592834 118.80238342 77.26332092 C121.79387723 74.88092832 124.82146034 72.54824402 127.85951233 70.22572327 C128.88689514 69.43681702 129.91427795 68.64791077 130.97279358 67.83509827 C132.49453186 66.66720764 132.49453186 66.66720764 134.04701233 65.47572327 C135.12395791 64.64775779 136.20077898 63.81963035 137.27748108 62.99134827 C137.81719543 62.57618958 138.35690979 62.16103088 138.91297913 61.73329163 C139.99418735 60.90118292 141.07508424 60.0686695 142.15565491 59.23573303 C144.95479629 57.07918453 147.7607398 54.93243503 150.57826233 52.79994202 C151.44934631 52.13768616 151.44934631 52.13768616 152.33802795 51.46205139 C153.94747617 50.23887075 155.55965589 49.01928658 157.17201233 47.79994202 C160.02123291 45.49656396 162.51016817 43.11049707 165.04701233 40.47572327 C164.49658264 40.63427795 163.94615295 40.79283264 163.37904358 40.95619202 C156.86425337 42.78437345 150.30789555 44.43615715 143.73451233 46.03822327 C142.89444641 46.24793762 142.05438049 46.45765198 141.18885803 46.67372131 C127.57589735 49.95237772 114.29483737 50.85243344 100.35951233 50.78822327 C99.51807678 50.78606812 98.67664124 50.78391296 97.80970764 50.7816925 C78.23945111 50.70120433 61.11124871 47.59669457 42.33265686 42.09242249 C39.91978631 41.44139589 37.50196146 40.94046623 35.04701233 40.47572327 Z M-56.95933533 65.20399475 C-57.97693939 65.58116135 -58.99454346 65.95832794 -60.04298401 66.34692383 C-61.13992584 66.75938858 -62.23686768 67.17185333 -63.36705017 67.59681702 C-65.05512283 68.22584679 -65.05512283 68.22584679 -66.77729797 68.86758423 C-69.15704564 69.75554531 -71.53589939 70.64590522 -73.91392517 71.53846741 C-77.56801392 72.90948112 -81.22508234 74.27229226 -84.88267517 75.63392639 C-87.19014761 76.49607292 -89.49744536 77.3586872 -91.80455017 78.22181702 C-93.45603561 78.8374778 -93.45603561 78.8374778 -95.1408844 79.46557617 C-96.15218414 79.84589493 -97.16348389 80.22621368 -98.20542908 80.61805725 C-99.10016937 80.9533696 -99.99490967 81.28868195 -100.91676331 81.63415527 C-102.91115946 82.30609327 -102.91115946 82.30609327 -103.95298767 83.47572327 C-104.05104765 85.65449912 -104.07669902 87.83652909 -104.0760355 90.01751041 C-104.07718934 90.71258584 -104.07834319 91.40766127 -104.079532 92.12379959 C-104.08220535 94.48226544 -104.07767064 96.84066473 -104.07324219 99.1991272 C-104.07367774 100.89528337 -104.07455236 102.59143947 -104.07583135 104.28759521 C-104.0780794 108.97139121 -104.07405083 113.65516456 -104.06905329 118.33895767 C-104.06475339 123.38125032 -104.06619489 128.4235416 -104.06695557 133.46583557 C-104.0674811 142.20955269 -104.06433129 150.95326237 -104.05871773 159.69697762 C-104.05060662 172.33907798 -104.04798791 184.98117473 -104.04672974 197.62327742 C-104.0445386 218.13195607 -104.03787686 238.64063075 -104.02842712 259.14930725 C-104.01925459 279.07704143 -104.01218444 299.00477452 -104.00791931 318.93251038 C-104.00765131 320.17243612 -104.00738332 321.41236187 -104.0071072 322.68986112 C-104.0050279 332.38622775 -104.00307093 342.0825944 -104.00115263 351.77896106 C-103.99171106 399.3445521 -103.97159463 446.91013322 -103.95298767 494.47572327 C-39.60298767 494.47572327 24.74701233 494.47572327 91.04701233 494.47572327 C91.04701233 372.04572327 91.04701233 249.61572327 91.04701233 123.47572327 C84.90939827 127.98449067 84.90939827 127.98449067 79.26576233 132.87806702 C78.65563293 133.45468079 78.04550354 134.03129456 77.41688538 134.62538147 C76.79982727 135.21536926 76.18276917 135.80535706 75.54701233 136.41322327 C74.23144827 137.65630267 72.9150515 138.89850145 71.59779358 140.13978577 C70.97984924 140.72276428 70.36190491 141.3057428 69.72523499 141.90638733 C67.18366874 144.28305126 64.57002063 146.56870744 61.93373108 148.83900452 C59.61042446 150.85446099 57.32952768 152.91420789 55.04701233 154.97572327 C51.43569491 158.23471704 47.79512763 161.45500508 44.12513733 164.64759827 C40.82987214 167.54644058 37.58851531 170.50480017 34.34388733 173.46009827 C29.8556336 177.3987699 27.1987108 179.14616799 21.04701233 179.47572327 C17.17160282 178.16989908 15.89895265 176.0705271 13.93763733 172.57728577 C13.35635071 171.55522034 12.77506409 170.53315491 12.17616272 169.4801178 C11.55604309 168.3649176 10.93592346 167.24971741 10.29701233 166.10072327 C9.63458874 164.92808085 8.97107465 163.75605385 8.30653381 162.58460999 C6.91322847 160.12542512 5.52563252 157.6631466 4.14222717 155.19837952 C1.48542346 150.46983828 -1.21248519 145.76519814 -3.90904236 141.05921936 C-5.91560298 137.55688598 -7.91756135 134.05196345 -9.91783142 130.54603577 C-12.59612308 125.85252897 -15.27564464 121.15972864 -17.95689392 116.46791077 C-18.28723633 115.88981659 -18.61757874 115.31172241 -18.95793152 114.71611023 C-20.61288257 111.82012259 -22.26828822 108.9243964 -23.92417908 106.02894592 C-27.05134067 100.55969392 -30.17495295 95.08852871 -33.28627014 89.61024475 C-34.75689299 87.02132871 -36.2294961 84.43354167 -37.70225525 81.84584045 C-38.40409387 80.61137803 -39.10496064 79.37636249 -39.80479431 78.14076233 C-40.77490976 76.42810386 -41.74863868 74.71749374 -42.72251892 73.00697327 C-43.27528503 72.03308655 -43.82805115 71.05919983 -44.39756775 70.05580139 C-46.46681798 66.61230018 -46.46681798 66.61230018 -48.95298767 63.47572327 C-52.14263699 63.47572327 -53.988203 64.09514879 -56.95933533 65.20399475 Z M249.04701233 63.47572327 C243.58090014 69.61626416 239.96055004 77.8676189 236.04701233 85.03822327 C234.7186006 87.45559303 233.38578198 89.87050448 232.05091858 92.28431702 C231.71556595 92.89078064 231.38021332 93.49724426 231.03469849 94.12208557 C227.77376368 100.00065993 224.39283058 105.80648575 220.98451233 111.60072327 C216.2390879 119.67234859 211.59981803 127.79388795 207.04701233 135.97572327 C200.21900152 148.24296419 193.19202738 160.39046907 186.04701233 172.47572327 C185.27007019 173.82102112 185.27007019 173.82102112 184.47743225 175.1934967 C182.82102243 177.83628882 182.04406833 178.64320771 179.04701233 179.47572327 C173.30050307 179.17649675 170.68347989 177.85810295 166.60951233 173.85072327 C165.66334045 172.9419342 164.71716858 172.03314514 163.74232483 171.09681702 C162.8528717 170.23185608 161.96341858 169.36689514 161.04701233 168.47572327 C159.70290046 167.27685426 158.34985313 166.08785857 156.98451233 164.91322327 C153.97627705 162.29870385 151.00570984 159.64620671 148.04701233 156.97572327 C145.06638512 154.28588896 142.07456 151.61261963 139.04701233 148.97572327 C136.01946466 146.33882691 133.02763953 143.66555757 130.04701233 140.97572327 C125.4938815 136.87150415 125.4938815 136.87150415 120.92201233 132.78822327 C120.08283264 132.03992249 120.08283264 132.03992249 119.22669983 131.27650452 C115.93098847 128.55370356 112.46698739 126.04070456 109.04701233 123.47572327 C109.04701233 245.90572327 109.04701233 368.33572327 109.04701233 494.47572327 C173.39701233 494.47572327 237.74701233 494.47572327 304.04701233 494.47572327 C304.04701233 358.84572327 304.04701233 223.21572327 304.04701233 83.47572327 C296.7937853 80.45354534 289.57771475 77.47003001 282.23060608 74.70619202 C281.36685867 74.38032608 280.50311127 74.05446014 279.6131897 73.71871948 C277.81478861 73.04127626 276.01595324 72.36498482 274.21669006 71.68983459 C271.45699801 70.6528848 268.70025337 69.6083386 265.9434967 68.56361389 C264.18520762 67.90234254 262.42675023 67.2415185 260.66810608 66.58119202 C259.84628342 66.2687706 259.02446075 65.95634918 258.17773438 65.63446045 C257.41586319 65.35028763 256.653992 65.06611481 255.86903381 64.77333069 C255.2012944 64.52193832 254.53355499 64.27054596 253.84558105 64.01153564 C251.88060522 63.33296821 251.88060522 63.33296821 249.04701233 63.47572327 Z " fill="#000000" transform="translate(155.95298767089844,-0.4757232666015625)"/>
<path d="M0 0 C1.31001732 -0.00639748 1.31001732 -0.00639748 2.64649963 -0.01292419 C4.07186035 -0.01224442 4.07186035 -0.01224442 5.52601624 -0.0115509 C7.03640221 -0.01658882 7.03640221 -0.01658882 8.57730103 -0.02172852 C11.90795625 -0.03123245 15.23856118 -0.03318127 18.56922913 -0.03425598 C20.88323996 -0.03746866 23.19725058 -0.04083274 25.51126099 -0.04434204 C30.36253836 -0.05033171 35.21379792 -0.05218208 40.06507874 -0.05158997 C46.28384238 -0.05148829 52.502492 -0.06514719 58.7212286 -0.08236217 C63.50043259 -0.09347521 68.27960895 -0.0955094 73.05882454 -0.09498024 C75.35176042 -0.09616115 77.64469699 -0.10058912 79.93762016 -0.10831261 C83.14294832 -0.11809942 86.34802791 -0.11523964 89.55335999 -0.10920715 C90.50157623 -0.11482666 91.44979248 -0.12044617 92.42674255 -0.12623596 C97.87624795 -0.10014739 102.16836365 -0.07509204 106.39064026 3.75335693 C108.13732651 7.17889888 108.03874123 10.46032255 108.02430725 14.21940613 C108.03277679 15.0312587 108.04124634 15.84311127 108.04997253 16.67956543 C108.07335587 19.3610555 108.07436441 22.04197224 108.07313538 24.72355652 C108.08023607 26.58916453 108.08793493 28.45477035 108.09620667 30.32037354 C108.10965447 34.23013887 108.11121886 38.13970226 108.10536194 42.04948425 C108.09946502 47.05790321 108.13005548 52.06535307 108.17047882 57.07358456 C108.19633779 60.92637343 108.19923489 64.77892838 108.19558716 68.63179207 C108.19728005 70.47817483 108.20693882 72.3245682 108.22473145 74.17086601 C108.24688666 76.75411069 108.23723815 79.33538651 108.21961975 81.91862488 C108.232883 82.67982635 108.24614624 83.44102783 108.2598114 84.22529602 C108.19856557 88.09322034 107.79092716 89.90166538 105.34017944 92.95025635 C103.00267366 94.8158361 100.6988519 96.61817563 98.21644592 98.28410339 C96.9644062 99.13023193 96.9644062 99.13023193 95.68707275 99.99345398 C94.79740311 100.58630188 93.90773346 101.17914978 92.99110413 101.78996277 C92.06272232 102.41471497 91.13434052 103.03946716 90.17782593 103.68315125 C87.21934452 105.67194088 84.25561408 107.65275371 81.29188538 109.63371277 C79.31043878 110.96525784 77.32931558 112.29728427 75.348526 113.62980652 C73.43800688 114.91278783 71.52720862 116.19535358 69.61610413 117.47746277 C68.29070869 118.36673462 68.29070869 118.36673462 66.9385376 119.27397156 C65.27133375 120.38804637 63.59969983 121.4955287 61.92308044 122.59538269 C60.42529813 123.58908109 58.94422506 124.60865782 57.4851532 125.65837097 C53.69632553 128.28563878 50.53384315 130.02631542 45.72367859 129.68107605 C41.14734272 128.4991168 37.43618997 125.7175831 33.58485413 123.07121277 C32.64563614 122.44650085 31.70641815 121.82178894 30.73873901 121.17814636 C27.74465939 119.18032238 24.76854785 117.15737073 21.79188538 115.13371277 C19.80274372 113.80265128 17.81251871 112.47320724 15.82118225 111.14543152 C-10.78752167 93.34989867 -10.78752167 93.34989867 -12.39561462 90.13371277 C-12.50950367 87.50583371 -12.56344166 84.90383872 -12.57261658 82.27507019 C-12.57918777 81.46350967 -12.58575897 80.65194916 -12.5925293 79.8157959 C-12.61227893 77.12359022 -12.62392849 74.43144036 -12.63389587 71.73918152 C-12.6379714 70.82052118 -12.64204693 69.90186085 -12.64624596 68.95536232 C-12.66711368 64.09318389 -12.68141242 59.23103374 -12.69078064 54.36882019 C-12.70184736 49.34483551 -12.73624821 44.32129347 -12.77595234 39.29746532 C-12.80208862 35.43613863 -12.81046981 31.57491788 -12.81406212 27.71351051 C-12.81893572 25.86153994 -12.83057169 24.00957434 -12.84910011 22.15769005 C-12.87342861 19.56494887 -12.8725383 16.97335914 -12.86558533 14.38053894 C-12.87839539 13.61619537 -12.89120544 12.85185181 -12.90440369 12.06434631 C-12.86913698 8.45443205 -12.49413526 6.29721092 -10.61624146 3.18078613 C-7.32308623 0.14500802 -4.36222785 0.00966027 0 0 Z M5.60438538 18.13371277 C0.03439769 52.91863106 0.03439769 52.91863106 9.54774475 87.84709167 C18.90367079 97.24804399 33.50797895 106.23744868 46.60438538 109.13371277 C49.23273385 108.67774399 49.23273385 108.67774399 51.60438538 107.13371277 C52.95087169 106.6170734 54.30365539 106.11672637 55.66029358 105.62736511 C68.18013236 100.74854627 82.75391828 94.30450183 89.60438538 82.13371277 C95.67547087 62.07115599 91.14062909 37.82188881 89.60438538 18.13371277 C61.88438538 18.13371277 34.16438538 18.13371277 5.60438538 18.13371277 Z " fill="#000000" transform="translate(319.39561462402344,237.8662872314453)"/>
<path d="M0 0 C2.89479637 1.73687782 3.01335881 3.05152682 3.875 6.375 C4.01492604 10.43285509 3.50204885 11.87243893 1 15 C-2.75047482 17.50031654 -4.55856266 17.53603554 -9 17 C-11.93052231 15.00475077 -13.64521503 13.57163515 -14.4453125 10.02734375 C-14.64297244 6.50240818 -14.298885 4.40194879 -12.1875 1.5625 C-7.96089656 -1.45650245 -4.93620578 -1.05775838 0 0 Z " fill="#000000" transform="translate(210,282)"/>
<path d="M0 0 C3.34238038 2.14255152 3.89167954 3.60282498 4.9375 7.4375 C5.0088886 11.50664993 4.73897267 13.00424864 2 16 C-1.61623139 17.5402467 -3.88806222 18.25271313 -7.75 17.375 C-10.37259386 15.77230375 -11.59045163 14.74490999 -13 12 C-13.6338947 7.64197392 -13.49760663 5.73085974 -11 2.0625 C-6.84919686 -0.79117716 -4.9698922 -0.7099846 0 0 Z " fill="#000000" transform="translate(209,418)"/>
<path d="M0 0 C2.875 1.5625 2.875 1.5625 5 4 C6.14009771 7.91908586 6.40888632 10.03158504 4.8125 13.8125 C2.85980888 16.16919618 1.94024566 17.18326509 -1 18 C-4.78825503 17.86470518 -7.23184073 17.49240979 -10.4375 15.4375 C-12.25759307 12.59815481 -12.63409202 10.33922437 -12.4453125 6.97265625 C-10.97112337 0.44225703 -5.94328138 -0.95517022 0 0 Z " fill="#000000" transform="translate(208,213)"/>
<path d="M0 0 C2.35235238 3.23448453 3.0174078 5.12961008 2.9375 9.125 C1.81161043 12.57772802 1.03437855 13.97708097 -2 16 C-6.9698922 16.7099846 -8.84919686 16.79117716 -13 13.9375 C-15.51930235 10.23727467 -15.7066341 8.3968344 -15 4 C-13.3236826 1.24604998 -12.06172747 -0.45083062 -9.1875 -1.9375 C-5.70119581 -2.03710869 -3.21503962 -1.34447111 0 0 Z " fill="#000000" transform="translate(211,351)"/>
</svg>
